<svg xmlns="http://www.w3.org/2000/svg" xmlns:xlink="http://www.w3.org/1999/xlink" width="500" zoomAndPan="magnify" viewBox="0 0 375 374.999991" height="500" preserveAspectRatio="xMidYMid meet" version="1.0"><defs><g/><clipPath id="f9a911c700"><path d="M 183 84 L 290.875 84 L 290.875 200 L 183 200 Z M 183 84 " clip-rule="nonzero"/></clipPath><clipPath id="02cde32ed6"><path d="M 150 150 L 263 150 L 263 261.707031 L 150 261.707031 Z M 150 150 " clip-rule="nonzero"/></clipPath><clipPath id="e6f98e8fbb"><path d="M 160 203 L 229 203 L 229 261.707031 L 160 261.707031 Z M 160 203 " clip-rule="nonzero"/></clipPath><clipPath id="30458d19b9"><path d="M 134 11.957031 L 150 11.957031 L 150 27 L 134 27 Z M 134 11.957031 " clip-rule="nonzero"/></clipPath></defs><path fill="#f9ed32" d="M 192.546875 46.398438 C 193.4375 46.398438 194.316406 46.308594 195.191406 46.136719 C 196.0625 45.964844 196.910156 45.707031 197.730469 45.367188 C 198.550781 45.027344 199.332031 44.609375 200.070312 44.113281 C 200.8125 43.621094 201.496094 43.058594 202.125 42.429688 C 202.753906 41.800781 203.316406 41.117188 203.808594 40.378906 C 204.304688 39.640625 204.722656 38.859375 205.0625 38.039062 C 205.402344 37.214844 205.660156 36.367188 205.832031 35.496094 C 206.007812 34.625 206.09375 33.742188 206.09375 32.855469 C 206.097656 31.964844 206.011719 31.082031 205.835938 30.210938 C 205.664062 29.339844 205.40625 28.492188 205.070312 27.667969 C 204.730469 26.847656 204.3125 26.066406 203.820312 25.328125 C 203.324219 24.585938 202.765625 23.902344 202.136719 23.273438 C 201.507812 22.644531 200.824219 22.082031 200.085938 21.585938 C 199.347656 21.089844 198.566406 20.671875 197.746094 20.332031 C 196.925781 19.988281 196.078125 19.730469 195.207031 19.558594 C 194.335938 19.382812 193.453125 19.296875 192.566406 19.292969 C 191.675781 19.292969 190.796875 19.378906 189.921875 19.550781 C 189.050781 19.722656 188.203125 19.980469 187.382812 20.316406 C 186.558594 20.65625 185.777344 21.074219 185.039062 21.566406 C 184.296875 22.058594 183.613281 22.621094 182.984375 23.246094 C 182.355469 23.875 181.792969 24.558594 181.296875 25.296875 C 180.800781 26.035156 180.382812 26.816406 180.042969 27.636719 C 179.699219 28.457031 179.441406 29.304688 179.265625 30.175781 C 179.089844 31.050781 179.003906 31.929688 179 32.820312 C 179 33.710938 179.085938 34.589844 179.261719 35.464844 C 179.433594 36.339844 179.691406 37.1875 180.03125 38.007812 C 180.371094 38.832031 180.789062 39.613281 181.28125 40.355469 C 181.777344 41.09375 182.339844 41.78125 182.96875 42.410156 C 183.597656 43.042969 184.28125 43.605469 185.019531 44.097656 C 185.757812 44.59375 186.539062 45.015625 187.363281 45.355469 C 188.183594 45.699219 189.03125 45.957031 189.902344 46.132812 C 190.777344 46.304688 191.65625 46.394531 192.546875 46.398438 Z M 192.546875 46.398438 " fill-opacity="0.7765" fill-rule="evenodd"/><path fill="#662d91" d="M 258.171875 56.84375 C 261.855469 61.113281 264.898438 65.796875 267.304688 70.898438 C 269.710938 75.996094 271.390625 81.320312 272.347656 86.878906 C 275.09375 102.941406 270.902344 117.8125 273.839844 127.808594 C 274.53125 130.050781 275.449219 132.191406 276.605469 134.234375 C 275.917969 134.632812 275.222656 135.011719 274.511719 135.371094 C 273.804688 135.730469 273.085938 136.070312 272.359375 136.390625 C 271.632812 136.707031 270.894531 137.003906 270.152344 137.28125 C 269.40625 137.558594 268.65625 137.8125 267.894531 138.046875 C 267.136719 138.277344 266.371094 138.488281 265.601562 138.679688 C 264.828125 138.867188 264.054688 139.035156 263.273438 139.179688 C 262.492188 139.324219 261.707031 139.445312 260.917969 139.546875 C 260.132812 139.644531 259.339844 139.722656 258.546875 139.777344 C 257.757812 139.832031 256.964844 139.863281 256.167969 139.871094 C 255.375 139.882812 254.582031 139.867188 253.789062 139.832031 C 252.996094 139.792969 252.203125 139.734375 251.414062 139.652344 C 250.625 139.570312 249.835938 139.464844 249.050781 139.339844 C 248.269531 139.210938 247.488281 139.0625 246.714844 138.890625 C 245.9375 138.71875 245.167969 138.523438 244.40625 138.308594 C 243.640625 138.089844 242.882812 137.851562 242.132812 137.59375 C 241.382812 137.332031 240.640625 137.054688 239.90625 136.75 C 239.171875 136.449219 238.445312 136.125 237.730469 135.78125 C 237.015625 135.4375 236.308594 135.074219 235.613281 134.691406 C 234.917969 134.304688 234.234375 133.902344 233.5625 133.476562 C 232.890625 133.054688 232.230469 132.613281 231.585938 132.152344 C 230.9375 131.6875 230.304688 131.210938 229.6875 130.710938 C 229.066406 130.214844 228.464844 129.699219 227.875 129.167969 C 227.285156 128.636719 226.710938 128.085938 226.152344 127.519531 C 225.59375 126.957031 225.054688 126.375 224.527344 125.777344 C 224.003906 125.183594 223.496094 124.570312 223.007812 123.945312 C 222.515625 123.320312 222.046875 122.683594 221.59375 122.03125 C 221.140625 121.378906 220.707031 120.710938 220.292969 120.035156 C 219.875 119.359375 219.480469 118.667969 219.105469 117.96875 C 218.730469 117.269531 218.375 116.558594 218.039062 115.839844 C 217.707031 115.117188 217.390625 114.390625 217.097656 113.652344 C 216.804688 112.914062 216.535156 112.167969 216.285156 111.414062 C 216.035156 110.65625 215.804688 109.898438 215.597656 109.128906 C 215.394531 108.363281 215.207031 107.589844 215.046875 106.8125 C 214.882812 106.035156 214.742188 105.253906 214.625 104.46875 C 214.507812 103.683594 214.414062 102.894531 214.34375 102.105469 C 214.269531 101.3125 214.21875 100.519531 214.195312 99.726562 C 214.167969 98.933594 214.164062 98.136719 214.179688 97.34375 C 214.199219 96.550781 214.242188 95.757812 214.304688 94.964844 C 214.371094 94.171875 214.457031 93.382812 214.566406 92.597656 C 214.675781 91.808594 214.808594 91.027344 214.960938 90.25 C 215.117188 89.46875 215.292969 88.695312 215.492188 87.925781 C 215.691406 87.15625 215.910156 86.394531 216.152344 85.636719 C 216.394531 84.882812 216.660156 84.132812 216.945312 83.390625 C 217.230469 82.648438 217.539062 81.917969 217.863281 81.195312 C 218.191406 80.46875 218.539062 79.757812 218.910156 79.050781 C 219.277344 78.347656 219.664062 77.65625 220.074219 76.972656 C 220.480469 76.292969 220.910156 75.625 221.355469 74.964844 C 221.800781 74.308594 222.265625 73.667969 222.75 73.035156 C 223.234375 72.40625 223.734375 71.789062 224.253906 71.1875 C 224.773438 70.585938 225.308594 70 225.859375 69.429688 C 226.410156 68.859375 226.980469 68.304688 227.5625 67.765625 C 228.148438 67.226562 228.746094 66.707031 229.359375 66.203125 C 229.976562 65.699219 230.601562 65.214844 231.246094 64.746094 C 231.886719 64.277344 232.542969 63.828125 233.207031 63.398438 C 233.875 62.96875 234.554688 62.558594 235.246094 62.164062 C 235.9375 61.773438 236.640625 61.402344 237.351562 61.050781 C 238.0625 60.703125 238.785156 60.371094 239.519531 60.0625 C 240.25 59.75 240.988281 59.464844 241.738281 59.195312 C 242.484375 58.929688 243.238281 58.683594 244 58.460938 C 244.761719 58.234375 245.53125 58.035156 246.304688 57.855469 C 247.078125 57.675781 247.855469 57.515625 248.636719 57.382812 C 249.421875 57.246094 250.207031 57.132812 250.996094 57.042969 C 251.785156 56.953125 252.574219 56.886719 253.367188 56.839844 C 254.160156 56.796875 254.957031 56.773438 255.75 56.777344 C 256.53125 56.777344 257.355469 56.800781 258.171875 56.84375 Z M 258.171875 56.84375 " fill-opacity="0.7765" fill-rule="evenodd"/><g clip-path="url(#f9a911c700)"><path fill="#92278f" d="M 273.15625 93.945312 C 274.023438 107.253906 271.339844 119.300781 273.839844 127.84375 C 278.125 142.4375 297.113281 155.660156 288.242188 163.171875 C 285.433594 165.421875 280.601562 165.570312 277.769531 167.777344 C 273.257812 171.296875 276.34375 175.105469 276.742188 177.851562 C 276.933594 179.15625 275.753906 181.25 271.851562 183.796875 C 274.796875 185.96875 274.527344 187.8125 273.476562 189.507812 C 272.039062 190.492188 270.5625 191.410156 269.042969 192.261719 C 267.527344 193.113281 265.972656 193.894531 264.382812 194.605469 C 262.792969 195.3125 261.175781 195.953125 259.527344 196.515625 C 257.882812 197.078125 256.210938 197.566406 254.523438 197.980469 C 252.832031 198.394531 251.125 198.730469 249.402344 198.988281 C 247.679688 199.25 245.953125 199.429688 244.214844 199.53125 C 242.476562 199.632812 240.738281 199.65625 238.996094 199.601562 C 237.257812 199.546875 235.523438 199.414062 233.796875 199.203125 C 232.070312 198.992188 230.355469 198.703125 228.652344 198.335938 C 226.949219 197.96875 225.269531 197.527344 223.605469 197.007812 C 221.945312 196.488281 220.308594 195.894531 218.703125 195.230469 C 217.09375 194.5625 215.519531 193.824219 213.976562 193.015625 C 212.4375 192.207031 210.933594 191.328125 209.472656 190.382812 C 208.011719 189.441406 206.59375 188.429688 205.222656 187.359375 C 203.851562 186.285156 202.53125 185.152344 201.261719 183.960938 C 199.996094 182.765625 198.78125 181.519531 197.625 180.21875 C 196.472656 178.917969 195.375 177.566406 194.34375 176.164062 C 193.308594 174.761719 192.339844 173.316406 191.4375 171.828125 C 190.535156 170.339844 189.699219 168.816406 188.933594 167.25 C 188.167969 165.6875 187.476562 164.089844 186.855469 162.464844 C 186.234375 160.835938 185.6875 159.1875 185.214844 157.511719 C 184.746094 155.835938 184.347656 154.140625 184.03125 152.429688 C 183.710938 150.714844 183.472656 148.992188 183.308594 147.261719 C 183.144531 145.527344 183.0625 143.789062 183.054688 142.046875 C 183.050781 140.304688 183.121094 138.570312 183.273438 136.832031 C 183.425781 135.097656 183.652344 133.375 183.960938 131.660156 C 184.269531 129.945312 184.652344 128.25 185.113281 126.570312 C 185.574219 124.890625 186.109375 123.238281 186.71875 121.605469 C 187.328125 119.976562 188.011719 118.375 188.765625 116.804688 C 189.519531 115.238281 190.34375 113.703125 191.238281 112.210938 C 192.128906 110.714844 193.089844 109.265625 194.113281 107.855469 C 195.136719 106.449219 196.222656 105.089844 197.371094 103.78125 C 198.515625 102.46875 199.71875 101.214844 200.980469 100.015625 C 202.242188 98.8125 203.554688 97.671875 204.917969 96.589844 C 206.28125 95.507812 207.691406 94.488281 209.144531 93.535156 C 210.601562 92.578125 212.097656 91.691406 213.632812 90.871094 C 215.171875 90.054688 216.738281 89.304688 218.34375 88.628906 C 219.945312 87.949219 221.578125 87.347656 223.234375 86.816406 C 224.894531 86.285156 226.574219 85.832031 228.273438 85.453125 C 229.972656 85.074219 231.683594 84.773438 233.410156 84.550781 C 235.136719 84.328125 236.871094 84.183594 238.609375 84.117188 C 240.347656 84.050781 242.085938 84.0625 243.824219 84.152344 C 245.5625 84.242188 247.296875 84.414062 249.019531 84.660156 C 250.742188 84.90625 252.449219 85.230469 254.144531 85.632812 C 255.835938 86.035156 257.507812 86.511719 259.160156 87.066406 C 260.8125 87.617188 262.433594 88.246094 264.027344 88.945312 C 265.621094 89.644531 267.179688 90.414062 268.703125 91.253906 C 270.230469 92.097656 271.710938 93.003906 273.15625 93.980469 Z M 273.15625 93.945312 " fill-opacity="0.7765" fill-rule="evenodd"/></g><g clip-path="url(#02cde32ed6)"><path fill="#007fc6" d="M 260.789062 221.617188 C 238.847656 230.554688 209.476562 200.582031 205.523438 261.707031 C 191.257812 252.335938 176.140625 244.640625 160.171875 238.621094 C 159.511719 237.652344 158.886719 236.664062 158.289062 235.65625 C 157.691406 234.652344 157.128906 233.625 156.597656 232.582031 C 156.0625 231.542969 155.566406 230.484375 155.097656 229.410156 C 154.632812 228.335938 154.203125 227.25 153.804688 226.148438 C 153.40625 225.046875 153.042969 223.9375 152.714844 222.8125 C 152.386719 221.6875 152.09375 220.558594 151.835938 219.414062 C 151.578125 218.273438 151.355469 217.125 151.167969 215.96875 C 150.984375 214.8125 150.832031 213.652344 150.71875 212.488281 C 150.605469 211.324219 150.53125 210.15625 150.488281 208.988281 C 150.449219 207.816406 150.445312 206.648438 150.476562 205.476562 C 150.511719 204.308594 150.582031 203.140625 150.6875 201.972656 C 150.792969 200.808594 150.933594 199.648438 151.113281 198.492188 C 151.292969 197.332031 151.503906 196.183594 151.753906 195.039062 C 152.007812 193.898438 152.292969 192.761719 152.613281 191.636719 C 152.933594 190.511719 153.289062 189.398438 153.679688 188.292969 C 154.070312 187.191406 154.496094 186.101562 154.957031 185.023438 C 155.414062 183.949219 155.90625 182.886719 156.433594 181.839844 C 156.957031 180.796875 157.515625 179.765625 158.105469 178.757812 C 158.695312 177.746094 159.316406 176.753906 159.96875 175.78125 C 160.617188 174.808594 161.300781 173.859375 162.011719 172.929688 C 162.722656 172 163.460938 171.09375 164.230469 170.210938 C 164.996094 169.328125 165.792969 168.46875 166.613281 167.636719 C 167.433594 166.800781 168.28125 165.996094 169.152344 165.214844 C 170.023438 164.433594 170.921875 163.679688 171.839844 162.957031 C 172.757812 162.230469 173.699219 161.539062 174.660156 160.871094 C 175.625 160.207031 176.605469 159.570312 177.609375 158.96875 C 178.609375 158.363281 179.628906 157.789062 180.667969 157.25 C 181.707031 156.710938 182.761719 156.203125 183.828125 155.726562 C 184.898438 155.253906 185.984375 154.8125 187.078125 154.40625 C 188.175781 154 189.285156 153.628906 190.40625 153.289062 C 191.527344 152.953125 192.65625 152.648438 193.796875 152.382812 C 194.933594 152.117188 196.082031 151.886719 197.234375 151.691406 C 198.390625 151.496094 199.546875 151.335938 200.710938 151.214844 C 201.875 151.09375 203.039062 151.007812 204.210938 150.957031 C 205.378906 150.90625 206.546875 150.894531 207.71875 150.917969 C 208.886719 150.941406 210.054688 151.003906 211.222656 151.097656 C 212.386719 151.195312 213.550781 151.328125 214.707031 151.496094 C 215.867188 151.667969 217.015625 151.871094 218.160156 152.113281 C 219.304688 152.355469 220.441406 152.632812 221.570312 152.945312 C 222.699219 153.257812 223.816406 153.605469 224.921875 153.988281 C 226.027344 154.371094 227.121094 154.785156 228.199219 155.238281 C 229.277344 155.6875 230.34375 156.171875 231.394531 156.6875 C 232.441406 157.207031 233.476562 157.757812 234.488281 158.339844 C 235.503906 158.921875 236.5 159.53125 237.476562 160.175781 C 238.457031 160.820312 239.410156 161.496094 240.34375 162.199219 C 241.28125 162.902344 242.191406 163.636719 243.082031 164.398438 C 243.96875 165.160156 244.835938 165.945312 245.675781 166.761719 C 246.511719 167.578125 247.328125 168.417969 248.113281 169.285156 C 248.902344 170.148438 249.660156 171.039062 250.390625 171.953125 C 251.125 172.867188 251.824219 173.800781 252.5 174.757812 C 253.171875 175.714844 253.8125 176.695312 254.425781 177.691406 C 255.039062 178.6875 255.617188 179.703125 256.164062 180.738281 C 256.714844 181.773438 257.230469 182.824219 257.710938 183.890625 C 258.195312 184.957031 258.644531 186.035156 259.058594 187.128906 C 259.472656 188.222656 259.855469 189.328125 260.199219 190.449219 C 260.546875 191.566406 260.859375 192.695312 261.132812 193.832031 C 261.410156 194.96875 261.648438 196.113281 261.851562 197.265625 C 262.054688 198.417969 262.222656 199.578125 262.355469 200.738281 C 262.488281 201.902344 262.582031 203.070312 262.640625 204.238281 C 262.699219 205.40625 262.722656 206.574219 262.707031 207.746094 C 262.691406 208.917969 262.640625 210.085938 262.554688 211.253906 C 262.464844 212.417969 262.34375 213.582031 262.183594 214.742188 C 262.023438 215.902344 261.824219 217.054688 261.59375 218.203125 C 261.359375 219.347656 261.09375 220.488281 260.789062 221.617188 Z M 260.789062 221.617188 " fill-opacity="0.7765" fill-rule="evenodd"/></g><g clip-path="url(#e6f98e8fbb)"><path fill="#01a6e6" d="M 228.578125 221.929688 C 216.984375 222.417969 207.632812 229.09375 205.523438 261.707031 C 191.335938 252.390625 176.308594 244.726562 160.4375 238.714844 C 160.464844 237.726562 160.527344 236.738281 160.628906 235.753906 C 160.734375 234.769531 160.878906 233.792969 161.0625 232.820312 C 161.246094 231.847656 161.46875 230.882812 161.734375 229.929688 C 161.996094 228.976562 162.296875 228.035156 162.636719 227.105469 C 162.976562 226.175781 163.351562 225.261719 163.765625 224.363281 C 164.179688 223.464844 164.628906 222.582031 165.117188 221.71875 C 165.601562 220.859375 166.121094 220.015625 166.675781 219.199219 C 167.230469 218.378906 167.820312 217.582031 168.4375 216.8125 C 169.058594 216.039062 169.707031 215.292969 170.386719 214.574219 C 171.066406 213.855469 171.777344 213.167969 172.511719 212.507812 C 173.25 211.84375 174.011719 211.214844 174.800781 210.617188 C 175.589844 210.019531 176.398438 209.453125 177.234375 208.921875 C 178.066406 208.386719 178.921875 207.890625 179.796875 207.429688 C 180.671875 206.964844 181.5625 206.539062 182.472656 206.152344 C 183.382812 205.761719 184.304688 205.410156 185.246094 205.09375 C 186.183594 204.78125 187.132812 204.503906 188.09375 204.269531 C 189.054688 204.03125 190.023438 203.835938 191 203.675781 C 191.976562 203.519531 192.957031 203.402344 193.945312 203.324219 C 194.929688 203.246094 195.917969 203.210938 196.90625 203.214844 C 197.898438 203.214844 198.886719 203.261719 199.871094 203.34375 C 200.855469 203.429688 201.835938 203.550781 202.8125 203.714844 C 203.789062 203.878906 204.757812 204.082031 205.714844 204.328125 C 206.675781 204.570312 207.621094 204.851562 208.558594 205.171875 C 209.496094 205.492188 210.417969 205.851562 211.324219 206.246094 C 212.230469 206.640625 213.121094 207.074219 213.992188 207.542969 C 214.863281 208.011719 215.714844 208.511719 216.542969 209.050781 C 217.375 209.589844 218.183594 210.160156 218.964844 210.765625 C 219.75 211.367188 220.507812 212.003906 221.242188 212.667969 C 221.972656 213.332031 222.675781 214.027344 223.351562 214.75 C 224.027344 215.472656 224.671875 216.222656 225.285156 217 C 225.902344 217.773438 226.484375 218.574219 227.03125 219.398438 C 227.582031 220.222656 228.097656 221.066406 228.578125 221.929688 Z M 228.578125 221.929688 " fill-opacity="0.7765" fill-rule="evenodd"/></g><path fill="#2063b2" d="M 281.59375 165.910156 C 280.214844 166.308594 278.941406 166.917969 277.769531 167.742188 C 273.257812 171.261719 276.34375 175.070312 276.742188 177.816406 C 276.933594 179.121094 275.753906 181.214844 271.851562 183.761719 C 276.363281 187.09375 273.328125 189.640625 271.511719 192.089844 C 263.074219 198.175781 274.816406 211.359375 260.894531 221.582031 C 246.84375 227.371094 229.757812 217.160156 218.21875 225 C 218.035156 223.945312 217.886719 222.886719 217.769531 221.820312 C 217.648438 220.757812 217.566406 219.691406 217.515625 218.621094 C 217.464844 217.554688 217.445312 216.484375 217.460938 215.414062 C 217.476562 214.34375 217.523438 213.273438 217.605469 212.207031 C 217.6875 211.140625 217.800781 210.078125 217.949219 209.015625 C 218.097656 207.957031 218.277344 206.902344 218.488281 205.851562 C 218.703125 204.804688 218.949219 203.761719 219.226562 202.730469 C 219.503906 201.695312 219.8125 200.671875 220.152344 199.65625 C 220.492188 198.640625 220.867188 197.640625 221.269531 196.648438 C 221.671875 195.65625 222.105469 194.679688 222.570312 193.714844 C 223.03125 192.75 223.527344 191.800781 224.050781 190.867188 C 224.570312 189.929688 225.121094 189.015625 225.703125 188.113281 C 226.28125 187.214844 226.886719 186.335938 227.523438 185.472656 C 228.15625 184.609375 228.816406 183.769531 229.503906 182.949219 C 230.191406 182.125 230.902344 181.328125 231.636719 180.550781 C 232.371094 179.773438 233.132812 179.019531 233.914062 178.289062 C 234.695312 177.558594 235.5 176.855469 236.328125 176.175781 C 237.152344 175.496094 238 174.839844 238.867188 174.214844 C 239.734375 173.585938 240.621094 172.984375 241.523438 172.414062 C 242.425781 171.839844 243.347656 171.296875 244.285156 170.78125 C 245.222656 170.265625 246.175781 169.78125 247.144531 169.324219 C 248.113281 168.867188 249.09375 168.441406 250.089844 168.046875 C 251.082031 167.652344 252.089844 167.289062 253.105469 166.953125 C 254.121094 166.621094 255.148438 166.320312 256.183594 166.050781 C 257.21875 165.78125 258.261719 165.542969 259.3125 165.339844 C 260.363281 165.136719 261.417969 164.964844 262.480469 164.824219 C 263.539062 164.6875 264.605469 164.578125 265.671875 164.507812 C 266.738281 164.433594 267.808594 164.394531 268.878906 164.386719 C 269.949219 164.378906 271.015625 164.40625 272.085938 164.464844 C 273.152344 164.527344 274.21875 164.617188 275.28125 164.746094 C 276.34375 164.871094 277.402344 165.027344 278.457031 165.21875 C 279.507812 165.410156 280.554688 165.636719 281.59375 165.890625 Z M 281.59375 165.910156 " fill-opacity="0.7765" fill-rule="evenodd"/><path fill="#12bcbc" d="M 118.414062 166.558594 C 119.074219 166.5625 119.726562 166.527344 120.382812 166.464844 C 121.035156 166.402344 121.6875 166.304688 122.332031 166.175781 C 122.976562 166.046875 123.613281 165.890625 124.242188 165.699219 C 124.871094 165.507812 125.488281 165.285156 126.097656 165.035156 C 126.703125 164.785156 127.296875 164.503906 127.875 164.195312 C 128.457031 163.882812 129.019531 163.546875 129.566406 163.179688 C 130.113281 162.816406 130.640625 162.425781 131.148438 162.007812 C 131.65625 161.589844 132.144531 161.152344 132.609375 160.6875 C 133.074219 160.222656 133.515625 159.734375 133.929688 159.226562 C 134.347656 158.71875 134.738281 158.191406 135.105469 157.644531 C 135.46875 157.097656 135.808594 156.535156 136.117188 155.957031 C 136.425781 155.375 136.707031 154.78125 136.960938 154.175781 C 137.210938 153.566406 137.433594 152.949219 137.625 152.320312 C 137.816406 151.691406 137.972656 151.054688 138.101562 150.410156 C 138.230469 149.765625 138.328125 149.113281 138.390625 148.460938 C 138.457031 147.804688 138.488281 147.148438 138.488281 146.492188 C 138.488281 145.835938 138.457031 145.179688 138.390625 144.523438 C 138.328125 143.871094 138.230469 143.222656 138.105469 142.578125 C 137.976562 141.929688 137.816406 141.292969 137.625 140.664062 C 137.433594 140.035156 137.214844 139.417969 136.960938 138.808594 C 136.710938 138.203125 136.429688 137.609375 136.121094 137.03125 C 135.808594 136.449219 135.472656 135.886719 135.109375 135.339844 C 134.742188 134.792969 134.351562 134.265625 133.933594 133.757812 C 133.519531 133.25 133.078125 132.761719 132.613281 132.296875 C 132.148438 131.832031 131.660156 131.390625 131.152344 130.972656 C 130.644531 130.558594 130.117188 130.167969 129.570312 129.800781 C 129.023438 129.4375 128.460938 129.097656 127.882812 128.789062 C 127.300781 128.476562 126.707031 128.199219 126.101562 127.945312 C 125.492188 127.695312 124.875 127.472656 124.246094 127.28125 C 123.617188 127.09375 122.980469 126.933594 122.335938 126.804688 C 121.691406 126.675781 121.042969 126.578125 120.386719 126.515625 C 119.734375 126.449219 119.078125 126.417969 118.421875 126.417969 C 117.765625 126.417969 117.109375 126.453125 116.453125 126.515625 C 115.800781 126.582031 115.152344 126.675781 114.507812 126.804688 C 113.863281 126.933594 113.226562 127.09375 112.597656 127.285156 C 111.96875 127.476562 111.347656 127.695312 110.742188 127.949219 C 110.132812 128.199219 109.542969 128.480469 108.960938 128.792969 C 108.382812 129.101562 107.820312 129.4375 107.273438 129.804688 C 106.726562 130.167969 106.199219 130.5625 105.691406 130.976562 C 105.183594 131.394531 104.695312 131.835938 104.230469 132.300781 C 103.765625 132.765625 103.328125 133.253906 102.910156 133.761719 C 102.492188 134.269531 102.101562 134.796875 101.738281 135.34375 C 101.371094 135.890625 101.035156 136.453125 100.726562 137.035156 C 100.414062 137.613281 100.136719 138.207031 99.882812 138.816406 C 99.632812 139.421875 99.410156 140.042969 99.222656 140.671875 C 99.03125 141.300781 98.871094 141.9375 98.742188 142.582031 C 98.617188 143.226562 98.519531 143.875 98.457031 144.53125 C 98.390625 145.183594 98.359375 145.839844 98.359375 146.5 C 98.359375 147.15625 98.394531 147.808594 98.460938 148.464844 C 98.523438 149.117188 98.621094 149.765625 98.75 150.410156 C 98.882812 151.054688 99.042969 151.6875 99.234375 152.316406 C 99.425781 152.945312 99.644531 153.5625 99.898438 154.167969 C 100.148438 154.777344 100.429688 155.367188 100.742188 155.945312 C 101.050781 156.527344 101.386719 157.089844 101.753906 157.632812 C 102.117188 158.179688 102.507812 158.707031 102.925781 159.214844 C 103.339844 159.722656 103.78125 160.207031 104.246094 160.671875 C 104.710938 161.136719 105.195312 161.578125 105.703125 161.992188 C 106.210938 162.410156 106.738281 162.800781 107.28125 163.167969 C 107.828125 163.53125 108.390625 163.867188 108.96875 164.179688 C 109.546875 164.488281 110.140625 164.769531 110.746094 165.023438 C 111.351562 165.273438 111.96875 165.496094 112.597656 165.6875 C 113.226562 165.878906 113.863281 166.039062 114.503906 166.167969 C 115.148438 166.296875 115.796875 166.394531 116.449219 166.460938 C 117.105469 166.527344 117.757812 166.558594 118.414062 166.558594 Z M 118.414062 166.558594 " fill-opacity="0.7765" fill-rule="evenodd"/><path fill="#00b9f1" d="M 160.4375 194.496094 C 161.039062 194.5 161.636719 194.472656 162.234375 194.414062 C 162.832031 194.359375 163.425781 194.269531 164.011719 194.15625 C 164.601562 194.039062 165.183594 193.894531 165.757812 193.722656 C 166.332031 193.550781 166.894531 193.351562 167.449219 193.121094 C 168.003906 192.894531 168.546875 192.640625 169.078125 192.359375 C 169.605469 192.078125 170.121094 191.769531 170.621094 191.4375 C 171.121094 191.105469 171.601562 190.75 172.066406 190.371094 C 172.53125 189.992188 172.976562 189.589844 173.402344 189.167969 C 173.828125 188.742188 174.230469 188.300781 174.609375 187.835938 C 174.992188 187.375 175.351562 186.894531 175.683594 186.394531 C 176.019531 185.898438 176.328125 185.386719 176.613281 184.855469 C 176.894531 184.328125 177.152344 183.785156 177.382812 183.234375 C 177.613281 182.679688 177.816406 182.117188 177.992188 181.542969 C 178.167969 180.96875 178.316406 180.386719 178.433594 179.800781 C 178.550781 179.210938 178.640625 178.617188 178.699219 178.023438 C 178.761719 177.425781 178.792969 176.828125 178.792969 176.226562 C 178.792969 175.625 178.765625 175.027344 178.707031 174.429688 C 178.648438 173.832031 178.5625 173.242188 178.445312 172.652344 C 178.332031 172.0625 178.1875 171.480469 178.011719 170.90625 C 177.839844 170.332031 177.640625 169.769531 177.410156 169.214844 C 177.183594 168.660156 176.925781 168.117188 176.644531 167.589844 C 176.363281 167.058594 176.054688 166.542969 175.722656 166.042969 C 175.390625 165.546875 175.035156 165.0625 174.65625 164.597656 C 174.277344 164.136719 173.875 163.691406 173.449219 163.265625 C 173.027344 162.839844 172.582031 162.4375 172.121094 162.058594 C 171.65625 161.675781 171.175781 161.316406 170.679688 160.984375 C 170.179688 160.648438 169.667969 160.339844 169.136719 160.058594 C 168.609375 159.773438 168.070312 159.515625 167.515625 159.289062 C 166.960938 159.058594 166.398438 158.855469 165.824219 158.679688 C 165.25 158.503906 164.667969 158.359375 164.082031 158.242188 C 163.492188 158.125 162.902344 158.035156 162.304688 157.976562 C 161.707031 157.917969 161.109375 157.886719 160.507812 157.886719 C 159.910156 157.886719 159.3125 157.914062 158.714844 157.972656 C 158.117188 158.03125 157.523438 158.117188 156.9375 158.234375 C 156.347656 158.351562 155.765625 158.496094 155.191406 158.667969 C 154.617188 158.84375 154.054688 159.042969 153.5 159.273438 C 152.945312 159.503906 152.402344 159.757812 151.875 160.042969 C 151.347656 160.324219 150.832031 160.632812 150.332031 160.964844 C 149.835938 161.296875 149.351562 161.65625 148.890625 162.035156 C 148.425781 162.414062 147.980469 162.816406 147.558594 163.242188 C 147.132812 163.664062 146.730469 164.109375 146.351562 164.574219 C 145.96875 165.035156 145.613281 165.515625 145.277344 166.015625 C 144.945312 166.515625 144.636719 167.027344 144.355469 167.558594 C 144.070312 168.085938 143.816406 168.628906 143.585938 169.183594 C 143.355469 169.738281 143.152344 170.300781 142.980469 170.875 C 142.804688 171.449219 142.660156 172.03125 142.542969 172.617188 C 142.425781 173.207031 142.335938 173.800781 142.277344 174.394531 C 142.21875 174.992188 142.191406 175.589844 142.191406 176.191406 C 142.191406 176.789062 142.222656 177.386719 142.28125 177.980469 C 142.339844 178.578125 142.429688 179.167969 142.546875 179.753906 C 142.664062 180.339844 142.808594 180.921875 142.984375 181.492188 C 143.15625 182.066406 143.359375 182.628906 143.589844 183.179688 C 143.816406 183.730469 144.074219 184.273438 144.355469 184.800781 C 144.636719 185.328125 144.941406 185.839844 145.273438 186.335938 C 145.605469 186.835938 145.960938 187.316406 146.339844 187.777344 C 146.71875 188.242188 147.121094 188.683594 147.542969 189.109375 C 147.964844 189.53125 148.40625 189.933594 148.867188 190.3125 C 149.328125 190.695312 149.808594 191.050781 150.304688 191.382812 C 150.800781 191.71875 151.3125 192.027344 151.839844 192.308594 C 152.367188 192.59375 152.90625 192.847656 153.457031 193.082031 C 154.007812 193.3125 154.570312 193.515625 155.140625 193.691406 C 155.714844 193.863281 156.292969 194.011719 156.878906 194.132812 C 157.464844 194.25 158.054688 194.339844 158.648438 194.402344 C 159.246094 194.464844 159.839844 194.496094 160.4375 194.496094 Z M 160.4375 194.496094 " fill-opacity="0.7765" fill-rule="evenodd"/><path fill="#8dc63f" d="M 115.53125 117.71875 C 116.453125 117.71875 117.367188 117.628906 118.273438 117.449219 C 119.179688 117.265625 120.058594 117 120.910156 116.648438 C 121.765625 116.292969 122.574219 115.859375 123.34375 115.347656 C 124.109375 114.832031 124.820312 114.25 125.472656 113.597656 C 126.125 112.945312 126.710938 112.234375 127.222656 111.464844 C 127.734375 110.699219 128.167969 109.886719 128.519531 109.035156 C 128.875 108.179688 129.140625 107.300781 129.320312 106.394531 C 129.5 105.488281 129.589844 104.574219 129.589844 103.652344 C 129.589844 102.726562 129.5 101.8125 129.320312 100.90625 C 129.140625 100 128.871094 99.121094 128.519531 98.269531 C 128.164062 97.414062 127.730469 96.605469 127.21875 95.835938 C 126.707031 95.070312 126.121094 94.359375 125.46875 93.707031 C 124.816406 93.050781 124.105469 92.46875 123.335938 91.957031 C 122.570312 91.445312 121.757812 91.011719 120.90625 90.65625 C 120.054688 90.304688 119.171875 90.039062 118.269531 89.859375 C 117.363281 89.679688 116.449219 89.589844 115.523438 89.589844 C 114.601562 89.589844 113.6875 89.679688 112.78125 89.859375 C 111.875 90.042969 110.996094 90.308594 110.144531 90.664062 C 109.289062 91.015625 108.480469 91.449219 107.714844 91.964844 C 106.945312 92.476562 106.234375 93.058594 105.582031 93.714844 C 104.929688 94.367188 104.347656 95.078125 103.835938 95.847656 C 103.324219 96.613281 102.890625 97.425781 102.539062 98.277344 C 102.183594 99.132812 101.917969 100.011719 101.738281 100.917969 C 101.558594 101.824219 101.46875 102.738281 101.46875 103.664062 C 101.472656 104.585938 101.5625 105.5 101.746094 106.402344 C 101.925781 107.308594 102.195312 108.1875 102.546875 109.039062 C 102.902344 109.890625 103.335938 110.699219 103.847656 111.46875 C 104.359375 112.234375 104.945312 112.945312 105.597656 113.597656 C 106.25 114.25 106.957031 114.832031 107.726562 115.34375 C 108.492188 115.855469 109.300781 116.289062 110.15625 116.644531 C 111.007812 116.996094 111.886719 117.265625 112.789062 117.445312 C 113.695312 117.625 114.609375 117.714844 115.53125 117.71875 Z M 115.53125 117.71875 " fill-opacity="0.7765" fill-rule="evenodd"/><path fill="#ffd900" d="M 108.519531 68.710938 C 108.519531 69.511719 108.441406 70.300781 108.285156 71.085938 C 108.128906 71.871094 107.898438 72.632812 107.589844 73.371094 C 107.285156 74.109375 106.910156 74.8125 106.464844 75.476562 C 106.023438 76.140625 105.515625 76.757812 104.953125 77.320312 C 104.386719 77.886719 103.773438 78.390625 103.105469 78.835938 C 102.441406 79.28125 101.742188 79.65625 101.003906 79.960938 C 100.265625 80.265625 99.503906 80.5 98.71875 80.652344 C 97.933594 80.808594 97.144531 80.886719 96.34375 80.886719 C 95.542969 80.886719 94.753906 80.808594 93.96875 80.652344 C 93.183594 80.5 92.421875 80.265625 91.683594 79.960938 C 90.945312 79.65625 90.246094 79.28125 89.578125 78.835938 C 88.914062 78.390625 88.300781 77.886719 87.734375 77.320312 C 87.167969 76.757812 86.664062 76.140625 86.21875 75.476562 C 85.777344 74.8125 85.402344 74.109375 85.09375 73.371094 C 84.789062 72.632812 84.558594 71.871094 84.402344 71.085938 C 84.246094 70.300781 84.167969 69.511719 84.167969 68.710938 C 84.167969 67.910156 84.246094 67.117188 84.402344 66.335938 C 84.558594 65.550781 84.789062 64.789062 85.09375 64.050781 C 85.402344 63.3125 85.777344 62.609375 86.21875 61.945312 C 86.664062 61.28125 87.167969 60.664062 87.734375 60.097656 C 88.300781 59.535156 88.914062 59.027344 89.578125 58.585938 C 90.246094 58.140625 90.945312 57.765625 91.683594 57.460938 C 92.421875 57.152344 93.183594 56.921875 93.96875 56.765625 C 94.753906 56.609375 95.542969 56.53125 96.34375 56.53125 C 97.144531 56.53125 97.933594 56.609375 98.71875 56.765625 C 99.503906 56.921875 100.265625 57.152344 101.003906 57.460938 C 101.742188 57.765625 102.441406 58.140625 103.105469 58.585938 C 103.773438 59.027344 104.386719 59.535156 104.953125 60.097656 C 105.515625 60.664062 106.023438 61.28125 106.464844 61.945312 C 106.910156 62.609375 107.285156 63.3125 107.589844 64.050781 C 107.898438 64.789062 108.128906 65.550781 108.285156 66.335938 C 108.441406 67.117188 108.519531 67.910156 108.519531 68.710938 Z M 108.519531 68.710938 " fill-opacity="0.7765" fill-rule="nonzero"/><path fill="#009444" d="M 122.066406 46.398438 C 122.8125 46.398438 123.550781 46.324219 124.28125 46.179688 C 125.015625 46.035156 125.726562 45.820312 126.417969 45.535156 C 127.105469 45.25 127.761719 44.898438 128.382812 44.484375 C 129.003906 44.070312 129.578125 43.597656 130.105469 43.070312 C 130.632812 42.542969 131.105469 41.96875 131.519531 41.347656 C 131.9375 40.730469 132.285156 40.074219 132.574219 39.382812 C 132.859375 38.695312 133.074219 37.984375 133.21875 37.25 C 133.367188 36.519531 133.441406 35.78125 133.441406 35.03125 C 133.441406 34.285156 133.367188 33.546875 133.222656 32.8125 C 133.078125 32.082031 132.863281 31.371094 132.578125 30.679688 C 132.292969 29.992188 131.941406 29.335938 131.527344 28.714844 C 131.113281 28.09375 130.640625 27.519531 130.113281 26.992188 C 129.585938 26.460938 129.011719 25.992188 128.390625 25.574219 C 127.769531 25.160156 127.117188 24.808594 126.425781 24.523438 C 125.738281 24.238281 125.027344 24.023438 124.292969 23.875 C 123.5625 23.730469 122.824219 23.65625 122.078125 23.65625 C 121.332031 23.65625 120.589844 23.730469 119.859375 23.875 C 119.125 24.019531 118.414062 24.238281 117.726562 24.523438 C 117.035156 24.808594 116.382812 25.15625 115.761719 25.574219 C 115.140625 25.988281 114.566406 26.457031 114.039062 26.988281 C 113.511719 27.515625 113.039062 28.089844 112.625 28.710938 C 112.207031 29.332031 111.859375 29.984375 111.574219 30.675781 C 111.289062 31.367188 111.070312 32.078125 110.925781 32.808594 C 110.78125 33.539062 110.707031 34.28125 110.707031 35.027344 C 110.707031 35.773438 110.78125 36.511719 110.929688 37.242188 C 111.074219 37.972656 111.289062 38.683594 111.578125 39.375 C 111.863281 40.0625 112.210938 40.71875 112.625 41.335938 C 113.039062 41.957031 113.511719 42.53125 114.039062 43.058594 C 114.566406 43.585938 115.140625 44.058594 115.757812 44.472656 C 116.378906 44.886719 117.03125 45.238281 117.722656 45.523438 C 118.410156 45.808594 119.117188 46.027344 119.851562 46.175781 C 120.582031 46.320312 121.320312 46.394531 122.066406 46.398438 Z M 122.066406 46.398438 " fill-opacity="0.7765" fill-rule="evenodd"/><path fill="#56ba48" d="M 125.921875 74.734375 C 126.417969 74.734375 126.90625 74.6875 127.386719 74.589844 C 127.871094 74.492188 128.339844 74.351562 128.796875 74.164062 C 129.253906 73.972656 129.683594 73.742188 130.09375 73.46875 C 130.503906 73.195312 130.882812 72.882812 131.230469 72.535156 C 131.582031 72.1875 131.890625 71.804688 132.167969 71.394531 C 132.441406 70.984375 132.671875 70.554688 132.859375 70.097656 C 133.046875 69.640625 133.191406 69.171875 133.289062 68.6875 C 133.382812 68.207031 133.429688 67.71875 133.429688 67.222656 C 133.429688 66.730469 133.382812 66.242188 133.289062 65.757812 C 133.191406 65.273438 133.046875 64.804688 132.859375 64.351562 C 132.671875 63.894531 132.441406 63.460938 132.167969 63.050781 C 131.890625 62.640625 131.582031 62.261719 131.230469 61.914062 C 130.882812 61.566406 130.503906 61.253906 130.09375 60.980469 C 129.683594 60.707031 129.253906 60.472656 128.796875 60.285156 C 128.339844 60.097656 127.871094 59.953125 127.386719 59.859375 C 126.90625 59.761719 126.417969 59.714844 125.921875 59.714844 C 125.429688 59.714844 124.941406 59.761719 124.457031 59.859375 C 123.976562 59.953125 123.503906 60.097656 123.050781 60.285156 C 122.59375 60.472656 122.160156 60.707031 121.753906 60.980469 C 121.34375 61.253906 120.964844 61.566406 120.613281 61.914062 C 120.265625 62.261719 119.953125 62.640625 119.679688 63.050781 C 119.40625 63.460938 119.175781 63.894531 118.988281 64.351562 C 118.796875 64.804688 118.65625 65.273438 118.558594 65.757812 C 118.464844 66.242188 118.414062 66.730469 118.414062 67.222656 C 118.417969 67.714844 118.464844 68.203125 118.5625 68.6875 C 118.660156 69.171875 118.800781 69.640625 118.992188 70.09375 C 119.179688 70.550781 119.410156 70.984375 119.6875 71.390625 C 119.960938 71.800781 120.269531 72.179688 120.621094 72.527344 C 120.96875 72.878906 121.347656 73.1875 121.757812 73.464844 C 122.164062 73.738281 122.597656 73.96875 123.054688 74.15625 C 123.507812 74.347656 123.976562 74.488281 124.460938 74.585938 C 124.941406 74.683594 125.429688 74.734375 125.921875 74.734375 Z M 125.921875 74.734375 " fill-opacity="0.7765" fill-rule="evenodd"/><g clip-path="url(#30458d19b9)"><path fill="#fbad17" d="M 141.582031 26.976562 C 142.074219 26.976562 142.5625 26.929688 143.046875 26.832031 C 143.53125 26.738281 144 26.59375 144.457031 26.40625 C 144.910156 26.21875 145.34375 25.984375 145.753906 25.710938 C 146.164062 25.4375 146.542969 25.125 146.890625 24.777344 C 147.238281 24.429688 147.550781 24.050781 147.824219 23.640625 C 148.097656 23.230469 148.332031 22.796875 148.519531 22.339844 C 148.707031 21.886719 148.851562 21.417969 148.945312 20.933594 C 149.042969 20.449219 149.089844 19.960938 149.089844 19.46875 C 149.089844 18.972656 149.042969 18.484375 148.945312 18.003906 C 148.851562 17.519531 148.707031 17.050781 148.519531 16.59375 C 148.332031 16.136719 148.097656 15.707031 147.824219 15.296875 C 147.550781 14.886719 147.238281 14.507812 146.890625 14.15625 C 146.542969 13.808594 146.164062 13.496094 145.753906 13.222656 C 145.34375 12.949219 144.910156 12.71875 144.457031 12.527344 C 144 12.339844 143.53125 12.199219 143.046875 12.101562 C 142.5625 12.003906 142.074219 11.957031 141.582031 11.957031 C 141.089844 11.957031 140.601562 12.003906 140.117188 12.101562 C 139.632812 12.199219 139.164062 12.339844 138.710938 12.527344 C 138.253906 12.71875 137.820312 12.949219 137.410156 13.222656 C 137 13.496094 136.621094 13.808594 136.273438 14.15625 C 135.925781 14.507812 135.613281 14.886719 135.339844 15.296875 C 135.066406 15.707031 134.835938 16.136719 134.644531 16.59375 C 134.457031 17.050781 134.316406 17.519531 134.21875 18.003906 C 134.121094 18.484375 134.074219 18.972656 134.074219 19.46875 C 134.074219 19.960938 134.125 20.449219 134.222656 20.933594 C 134.320312 21.414062 134.460938 21.882812 134.652344 22.339844 C 134.839844 22.792969 135.070312 23.226562 135.34375 23.636719 C 135.617188 24.046875 135.929688 24.425781 136.277344 24.773438 C 136.625 25.121094 137.003906 25.433594 137.414062 25.707031 C 137.824219 25.980469 138.257812 26.210938 138.710938 26.402344 C 139.167969 26.589844 139.636719 26.734375 140.117188 26.832031 C 140.601562 26.929688 141.089844 26.976562 141.582031 26.976562 Z M 141.582031 26.976562 " fill-opacity="0.7765" fill-rule="evenodd"/></g><path fill="#f15c22" d="M 95.464844 43.71875 C 95.839844 43.71875 96.207031 43.679688 96.574219 43.605469 C 96.9375 43.53125 97.292969 43.421875 97.636719 43.277344 C 97.980469 43.132812 98.308594 42.957031 98.617188 42.75 C 98.925781 42.539062 99.210938 42.304688 99.472656 42.039062 C 99.734375 41.773438 99.96875 41.488281 100.175781 41.175781 C 100.382812 40.863281 100.554688 40.539062 100.699219 40.191406 C 100.839844 39.847656 100.945312 39.492188 101.015625 39.125 C 101.089844 38.757812 101.125 38.390625 101.121094 38.015625 C 101.121094 37.644531 101.085938 37.273438 101.011719 36.910156 C 100.9375 36.542969 100.828125 36.1875 100.683594 35.84375 C 100.539062 35.5 100.363281 35.175781 100.15625 34.863281 C 99.949219 34.554688 99.714844 34.269531 99.449219 34.003906 C 99.183594 33.742188 98.898438 33.507812 98.585938 33.300781 C 98.277344 33.09375 97.949219 32.921875 97.605469 32.777344 C 97.257812 32.636719 96.90625 32.53125 96.539062 32.457031 C 96.171875 32.386719 95.804688 32.347656 95.429688 32.351562 C 95.058594 32.351562 94.6875 32.386719 94.324219 32.460938 C 93.957031 32.535156 93.601562 32.640625 93.257812 32.785156 C 92.914062 32.929688 92.585938 33.105469 92.277344 33.3125 C 91.96875 33.519531 91.679688 33.753906 91.417969 34.019531 C 91.15625 34.28125 90.917969 34.570312 90.710938 34.878906 C 90.503906 35.1875 90.332031 35.515625 90.1875 35.859375 C 90.046875 36.207031 89.9375 36.5625 89.867188 36.925781 C 89.792969 37.292969 89.757812 37.660156 89.757812 38.035156 C 89.757812 38.410156 89.796875 38.777344 89.867188 39.144531 C 89.941406 39.511719 90.050781 39.867188 90.195312 40.214844 C 90.339844 40.558594 90.515625 40.886719 90.726562 41.195312 C 90.933594 41.507812 91.171875 41.792969 91.433594 42.058594 C 91.699219 42.324219 91.988281 42.558594 92.300781 42.765625 C 92.609375 42.972656 92.941406 43.148438 93.285156 43.289062 C 93.632812 43.433594 93.988281 43.539062 94.355469 43.613281 C 94.722656 43.683594 95.089844 43.71875 95.464844 43.71875 Z M 95.464844 43.71875 " fill-opacity="0.7765" fill-rule="evenodd"/><path fill="#fbad17" d="M 230.558594 101.714844 C 230.558594 103.269531 230.480469 104.824219 230.328125 106.371094 C 230.175781 107.917969 229.949219 109.457031 229.644531 110.984375 C 229.339844 112.507812 228.964844 114.015625 228.511719 115.503906 C 228.0625 116.992188 227.539062 118.457031 226.941406 119.894531 C 226.347656 121.332031 225.683594 122.734375 224.949219 124.109375 C 224.214844 125.480469 223.417969 126.8125 222.554688 128.105469 C 221.691406 129.402344 220.765625 130.648438 219.777344 131.851562 C 218.792969 133.054688 217.746094 134.207031 216.648438 135.304688 C 215.546875 136.40625 214.398438 137.449219 213.195312 138.4375 C 211.992188 139.421875 210.746094 140.347656 209.453125 141.214844 C 208.160156 142.078125 206.824219 142.875 205.453125 143.609375 C 204.082031 144.34375 202.679688 145.007812 201.242188 145.601562 C 199.804688 146.199219 198.339844 146.722656 196.851562 147.171875 C 195.363281 147.625 193.859375 148.003906 192.332031 148.304688 C 190.808594 148.609375 189.269531 148.839844 187.722656 148.992188 C 186.175781 149.144531 184.621094 149.21875 183.066406 149.21875 C 181.511719 149.21875 179.960938 149.144531 178.414062 148.992188 C 176.863281 148.839844 175.328125 148.609375 173.804688 148.304688 C 172.277344 148.003906 170.769531 147.625 169.28125 147.171875 C 167.792969 146.722656 166.332031 146.199219 164.894531 145.601562 C 163.457031 145.007812 162.054688 144.34375 160.679688 143.609375 C 159.308594 142.875 157.976562 142.078125 156.683594 141.214844 C 155.390625 140.347656 154.144531 139.421875 152.941406 138.4375 C 151.738281 137.449219 150.585938 136.40625 149.488281 135.304688 C 148.386719 134.207031 147.34375 133.054688 146.359375 131.851562 C 145.371094 130.648438 144.445312 129.402344 143.582031 128.105469 C 142.71875 126.8125 141.917969 125.480469 141.183594 124.109375 C 140.453125 122.734375 139.789062 121.332031 139.191406 119.894531 C 138.597656 118.457031 138.074219 116.992188 137.621094 115.503906 C 137.171875 114.015625 136.792969 112.507812 136.492188 110.984375 C 136.1875 109.457031 135.957031 107.917969 135.804688 106.371094 C 135.652344 104.824219 135.578125 103.269531 135.578125 101.714844 C 135.578125 100.160156 135.652344 98.605469 135.804688 97.058594 C 135.957031 95.511719 136.1875 93.972656 136.492188 92.449219 C 136.792969 90.921875 137.171875 89.414062 137.621094 87.925781 C 138.074219 86.4375 138.597656 84.972656 139.191406 83.535156 C 139.789062 82.097656 140.453125 80.695312 141.183594 79.320312 C 141.917969 77.949219 142.71875 76.617188 143.582031 75.324219 C 144.445312 74.03125 145.371094 72.78125 146.359375 71.578125 C 147.34375 70.375 148.386719 69.226562 149.488281 68.125 C 150.585938 67.023438 151.738281 65.980469 152.941406 64.992188 C 154.144531 64.007812 155.390625 63.082031 156.683594 62.21875 C 157.976562 61.351562 159.308594 60.554688 160.679688 59.820312 C 162.054688 59.085938 163.457031 58.421875 164.894531 57.828125 C 166.332031 57.230469 167.792969 56.707031 169.28125 56.257812 C 170.769531 55.804688 172.277344 55.425781 173.804688 55.125 C 175.328125 54.820312 176.863281 54.59375 178.414062 54.441406 C 179.960938 54.289062 181.511719 54.210938 183.066406 54.210938 C 184.621094 54.210938 186.175781 54.289062 187.722656 54.441406 C 189.269531 54.59375 190.808594 54.820312 192.332031 55.125 C 193.859375 55.425781 195.363281 55.804688 196.851562 56.257812 C 198.339844 56.707031 199.804688 57.230469 201.242188 57.828125 C 202.679688 58.421875 204.082031 59.085938 205.453125 59.820312 C 206.824219 60.554688 208.160156 61.351562 209.453125 62.21875 C 210.746094 63.082031 211.992188 64.007812 213.195312 64.992188 C 214.398438 65.980469 215.546875 67.023438 216.648438 68.125 C 217.746094 69.226562 218.792969 70.375 219.777344 71.578125 C 220.765625 72.78125 221.691406 74.03125 222.554688 75.324219 C 223.417969 76.617188 224.214844 77.949219 224.949219 79.320312 C 225.683594 80.695312 226.347656 82.097656 226.941406 83.535156 C 227.539062 84.972656 228.0625 86.4375 228.511719 87.925781 C 228.964844 89.414062 229.339844 90.921875 229.644531 92.449219 C 229.949219 93.972656 230.175781 95.511719 230.328125 97.058594 C 230.480469 98.605469 230.558594 100.160156 230.558594 101.714844 Z M 230.558594 101.714844 " fill-opacity="0.7765" fill-rule="nonzero"/><path fill="#ec008b" d="M 209.300781 29.8125 C 232.0625 34.503906 251.125 45.910156 262.371094 62.3125 C 262.273438 63.007812 262.15625 63.699219 262.015625 64.386719 C 261.878906 65.074219 261.71875 65.753906 261.535156 66.433594 C 261.355469 67.109375 261.152344 67.78125 260.929688 68.445312 C 260.707031 69.109375 260.460938 69.765625 260.199219 70.417969 C 259.933594 71.066406 259.652344 71.707031 259.347656 72.339844 C 259.042969 72.972656 258.722656 73.59375 258.378906 74.207031 C 258.035156 74.816406 257.675781 75.417969 257.296875 76.007812 C 256.917969 76.597656 256.519531 77.175781 256.105469 77.738281 C 255.691406 78.304688 255.257812 78.855469 254.808594 79.394531 C 254.359375 79.933594 253.894531 80.457031 253.414062 80.96875 C 252.929688 81.476562 252.433594 81.96875 251.921875 82.449219 C 251.410156 82.925781 250.882812 83.390625 250.339844 83.835938 C 249.800781 84.28125 249.246094 84.710938 248.679688 85.121094 C 248.113281 85.535156 247.53125 85.929688 246.941406 86.304688 C 246.347656 86.679688 245.746094 87.035156 245.132812 87.375 C 244.515625 87.714844 243.894531 88.03125 243.257812 88.332031 C 242.625 88.632812 241.984375 88.910156 241.332031 89.171875 C 240.679688 89.429688 240.023438 89.671875 239.355469 89.890625 C 238.691406 90.109375 238.019531 90.308594 237.339844 90.484375 C 236.664062 90.664062 235.980469 90.820312 235.292969 90.953125 C 234.605469 91.089844 233.914062 91.203125 233.21875 91.292969 C 232.523438 91.386719 231.824219 91.457031 231.125 91.507812 C 230.425781 91.554688 229.726562 91.582031 229.027344 91.589844 C 228.324219 91.59375 227.625 91.578125 226.925781 91.539062 C 226.222656 91.503906 225.527344 91.441406 224.828125 91.363281 C 224.132812 91.28125 223.441406 91.179688 222.75 91.054688 C 222.058594 90.929688 221.375 90.785156 220.695312 90.617188 C 220.011719 90.453125 219.339844 90.265625 218.667969 90.058594 C 218 89.847656 217.335938 89.621094 216.683594 89.371094 C 216.027344 89.121094 215.378906 88.851562 214.742188 88.5625 C 214.101562 88.273438 213.472656 87.964844 212.855469 87.636719 C 212.234375 87.308594 211.625 86.960938 211.027344 86.59375 C 210.429688 86.226562 209.84375 85.84375 209.269531 85.441406 C 208.695312 85.039062 208.136719 84.617188 207.585938 84.179688 C 207.039062 83.742188 206.503906 83.289062 205.984375 82.820312 C 205.464844 82.347656 204.960938 81.863281 204.472656 81.363281 C 203.980469 80.859375 203.507812 80.34375 203.050781 79.8125 C 202.589844 79.28125 202.152344 78.738281 201.726562 78.179688 C 201.300781 77.621094 200.894531 77.050781 200.507812 76.464844 C 200.117188 75.882812 199.75 75.289062 199.394531 74.679688 C 199.042969 74.074219 198.710938 73.457031 198.398438 72.832031 C 198.085938 72.203125 197.789062 71.566406 197.515625 70.921875 C 197.242188 70.277344 196.988281 69.625 196.753906 68.964844 C 196.519531 68.300781 196.304688 67.632812 196.113281 66.960938 C 195.921875 66.285156 195.75 65.605469 195.601562 64.921875 C 195.449219 64.238281 195.320312 63.546875 195.210938 62.855469 C 195.105469 62.160156 195.019531 61.464844 194.953125 60.769531 C 194.890625 60.070312 194.847656 59.371094 194.824219 58.667969 C 194.804688 57.96875 194.804688 57.265625 194.828125 56.566406 C 194.847656 55.867188 194.890625 55.167969 194.957031 54.46875 C 195.023438 53.769531 195.109375 53.074219 195.21875 52.382812 C 195.328125 51.6875 195.457031 51 195.609375 50.316406 C 195.757812 49.628906 195.929688 48.953125 196.125 48.277344 C 196.316406 47.601562 196.53125 46.9375 196.765625 46.273438 C 197 45.613281 197.253906 44.960938 197.53125 44.316406 C 197.804688 43.671875 198.101562 43.035156 198.414062 42.410156 C 198.730469 41.78125 199.0625 41.164062 199.414062 40.558594 C 199.769531 39.953125 200.140625 39.359375 200.527344 38.777344 C 200.917969 38.191406 201.324219 37.621094 201.75 37.066406 C 202.175781 36.507812 202.617188 35.960938 203.074219 35.433594 C 203.53125 34.902344 204.007812 34.386719 204.496094 33.886719 C 204.988281 33.382812 205.492188 32.898438 206.015625 32.429688 C 206.535156 31.960938 207.070312 31.507812 207.617188 31.070312 C 208.167969 30.632812 208.726562 30.214844 209.300781 29.8125 Z M 209.300781 29.8125 " fill-opacity="0.7765" fill-rule="evenodd"/><path fill="#56ba48" d="M 167.078125 80.898438 C 168.011719 80.898438 168.9375 80.851562 169.867188 80.761719 C 170.792969 80.667969 171.714844 80.535156 172.628906 80.351562 C 173.542969 80.171875 174.445312 79.945312 175.335938 79.675781 C 176.226562 79.402344 177.101562 79.089844 177.964844 78.734375 C 178.824219 78.378906 179.664062 77.980469 180.488281 77.542969 C 181.308594 77.101562 182.109375 76.625 182.882812 76.105469 C 183.65625 75.589844 184.40625 75.035156 185.125 74.445312 C 185.84375 73.851562 186.535156 73.226562 187.191406 72.570312 C 187.851562 71.910156 188.476562 71.222656 189.066406 70.5 C 189.660156 69.78125 190.214844 69.03125 190.730469 68.257812 C 191.25 67.484375 191.726562 66.6875 192.167969 65.863281 C 192.605469 65.042969 193.003906 64.199219 193.359375 63.339844 C 193.71875 62.480469 194.03125 61.601562 194.300781 60.710938 C 194.574219 59.820312 194.800781 58.917969 194.980469 58.003906 C 195.164062 57.089844 195.300781 56.167969 195.390625 55.242188 C 195.484375 54.3125 195.527344 53.382812 195.527344 52.453125 C 195.527344 51.519531 195.484375 50.589844 195.390625 49.664062 C 195.300781 48.734375 195.164062 47.816406 194.984375 46.902344 C 194.800781 45.988281 194.574219 45.085938 194.304688 44.191406 C 194.035156 43.300781 193.722656 42.425781 193.367188 41.5625 C 193.007812 40.703125 192.613281 39.863281 192.171875 39.039062 C 191.734375 38.21875 191.253906 37.417969 190.738281 36.644531 C 190.222656 35.871094 189.667969 35.121094 189.074219 34.402344 C 188.484375 33.679688 187.859375 32.992188 187.203125 32.332031 C 186.542969 31.671875 185.855469 31.046875 185.132812 30.457031 C 184.414062 29.867188 183.667969 29.3125 182.890625 28.792969 C 182.117188 28.277344 181.320312 27.796875 180.496094 27.359375 C 179.675781 26.917969 178.835938 26.519531 177.972656 26.164062 C 177.113281 25.808594 176.238281 25.492188 175.347656 25.222656 C 174.457031 24.953125 173.550781 24.726562 172.640625 24.542969 C 171.726562 24.363281 170.804688 24.226562 169.878906 24.132812 C 168.949219 24.042969 168.023438 23.996094 167.089844 23.996094 C 166.160156 23.996094 165.230469 24.042969 164.300781 24.132812 C 163.375 24.222656 162.453125 24.359375 161.539062 24.542969 C 160.628906 24.722656 159.722656 24.949219 158.832031 25.222656 C 157.941406 25.492188 157.066406 25.804688 156.203125 26.160156 C 155.34375 26.519531 154.503906 26.914062 153.679688 27.355469 C 152.859375 27.792969 152.0625 28.273438 151.289062 28.789062 C 150.511719 29.308594 149.765625 29.863281 149.046875 30.453125 C 148.324219 31.042969 147.636719 31.667969 146.976562 32.328125 C 146.316406 32.988281 145.691406 33.675781 145.101562 34.398438 C 144.511719 35.117188 143.957031 35.863281 143.4375 36.640625 C 142.921875 37.414062 142.441406 38.210938 142.003906 39.035156 C 141.566406 39.855469 141.167969 40.699219 140.8125 41.558594 C 140.453125 42.417969 140.140625 43.296875 139.871094 44.1875 C 139.601562 45.078125 139.375 45.980469 139.191406 46.894531 C 139.011719 47.808594 138.875 48.730469 138.78125 49.65625 C 138.691406 50.585938 138.644531 51.515625 138.644531 52.445312 C 138.648438 53.378906 138.695312 54.304688 138.785156 55.234375 C 138.878906 56.160156 139.015625 57.078125 139.199219 57.992188 C 139.382812 58.90625 139.609375 59.808594 139.882812 60.699219 C 140.152344 61.589844 140.464844 62.464844 140.824219 63.324219 C 141.179688 64.183594 141.578125 65.023438 142.019531 65.84375 C 142.457031 66.667969 142.933594 67.464844 143.453125 68.238281 C 143.96875 69.011719 144.523438 69.757812 145.113281 70.476562 C 145.707031 71.199219 146.328125 71.886719 146.988281 72.546875 C 147.644531 73.203125 148.335938 73.828125 149.054688 74.421875 C 149.773438 75.011719 150.519531 75.566406 151.292969 76.082031 C 152.066406 76.601562 152.863281 77.078125 153.683594 77.519531 C 154.503906 77.960938 155.34375 78.359375 156.203125 78.714844 C 157.066406 79.070312 157.941406 79.386719 158.828125 79.65625 C 159.71875 79.929688 160.621094 80.15625 161.535156 80.339844 C 162.445312 80.523438 163.367188 80.660156 164.292969 80.753906 C 165.21875 80.847656 166.148438 80.894531 167.078125 80.898438 Z M 167.078125 80.898438 " fill-opacity="0.7765" fill-rule="evenodd"/><g fill="#000000" fill-opacity="1"><g transform="translate(63.165347, 311.269379)"><g><path d="M 24.234375 -14.953125 C 25.828125 -14.429688 27.085938 -13.5625 28.015625 -12.34375 C 28.941406 -11.125 29.40625 -9.613281 29.40625 -7.8125 C 29.40625 -5.3125 28.445312 -3.382812 26.53125 -2.03125 C 24.613281 -0.675781 21.820312 0 18.15625 0 L 3.859375 0 L 3.859375 -28.75 L 17.328125 -28.75 C 20.722656 -28.75 23.335938 -28.082031 25.171875 -26.75 C 27.015625 -25.425781 27.9375 -23.601562 27.9375 -21.28125 C 27.9375 -19.851562 27.609375 -18.59375 26.953125 -17.5 C 26.296875 -16.40625 25.390625 -15.554688 24.234375 -14.953125 Z M 9.203125 -24.5625 L 9.203125 -16.640625 L 16.765625 -16.640625 C 18.617188 -16.640625 20.046875 -16.972656 21.046875 -17.640625 C 22.046875 -18.316406 22.546875 -19.296875 22.546875 -20.578125 C 22.546875 -21.890625 22.046875 -22.878906 21.046875 -23.546875 C 20.046875 -24.222656 18.617188 -24.5625 16.765625 -24.5625 Z M 17.828125 -4.1875 C 21.960938 -4.1875 24.03125 -5.570312 24.03125 -8.34375 C 24.03125 -11.101562 21.960938 -12.484375 17.828125 -12.484375 L 9.203125 -12.484375 L 9.203125 -4.1875 Z M 17.828125 -4.1875 "/></g></g></g><g fill="#000000" fill-opacity="1"><g transform="translate(96.510848, 311.269379)"><g><path d="M 3.375 -30.484375 L 8.5 -30.484375 L 8.5 0 L 3.375 0 Z M 3.375 -30.484375 "/></g></g></g><g fill="#000000" fill-opacity="1"><g transform="translate(110.473602, 311.269379)"><g><path d="M 11.75 -22.1875 C 14.976562 -22.1875 17.445312 -21.410156 19.15625 -19.859375 C 20.875 -18.316406 21.734375 -15.984375 21.734375 -12.859375 L 21.734375 0 L 16.890625 0 L 16.890625 -2.671875 C 16.253906 -1.710938 15.351562 -0.976562 14.1875 -0.46875 C 13.03125 0.03125 11.628906 0.28125 9.984375 0.28125 C 8.335938 0.28125 6.894531 0.00390625 5.65625 -0.546875 C 4.425781 -1.109375 3.476562 -1.890625 2.8125 -2.890625 C 2.144531 -3.890625 1.8125 -5.019531 1.8125 -6.28125 C 1.8125 -8.257812 2.539062 -9.84375 4 -11.03125 C 5.46875 -12.21875 7.773438 -12.8125 10.921875 -12.8125 L 16.59375 -12.8125 L 16.59375 -13.140625 C 16.59375 -14.679688 16.132812 -15.859375 15.21875 -16.671875 C 14.300781 -17.492188 12.9375 -17.90625 11.125 -17.90625 C 9.894531 -17.90625 8.679688 -17.710938 7.484375 -17.328125 C 6.296875 -16.953125 5.296875 -16.421875 4.484375 -15.734375 L 2.46875 -19.46875 C 3.613281 -20.34375 4.992188 -21.015625 6.609375 -21.484375 C 8.222656 -21.953125 9.9375 -22.1875 11.75 -22.1875 Z M 11.046875 -3.453125 C 12.335938 -3.453125 13.484375 -3.742188 14.484375 -4.328125 C 15.484375 -4.921875 16.1875 -5.765625 16.59375 -6.859375 L 16.59375 -9.40625 L 11.296875 -9.40625 C 8.335938 -9.40625 6.859375 -8.429688 6.859375 -6.484375 C 6.859375 -5.554688 7.226562 -4.816406 7.96875 -4.265625 C 8.707031 -3.722656 9.734375 -3.453125 11.046875 -3.453125 Z M 11.046875 -3.453125 "/></g></g></g><g fill="#000000" fill-opacity="1"><g transform="translate(137.495074, 311.269379)"><g><path d="M 13.4375 0.28125 C 11.15625 0.28125 9.109375 -0.195312 7.296875 -1.15625 C 5.492188 -2.113281 4.085938 -3.445312 3.078125 -5.15625 C 2.066406 -6.863281 1.5625 -8.800781 1.5625 -10.96875 C 1.5625 -13.132812 2.066406 -15.066406 3.078125 -16.765625 C 4.085938 -18.460938 5.488281 -19.789062 7.28125 -20.75 C 9.082031 -21.707031 11.132812 -22.1875 13.4375 -22.1875 C 15.59375 -22.1875 17.484375 -21.742188 19.109375 -20.859375 C 20.742188 -19.984375 21.972656 -18.726562 22.796875 -17.09375 L 18.859375 -14.78125 C 18.222656 -15.800781 17.429688 -16.5625 16.484375 -17.0625 C 15.546875 -17.570312 14.515625 -17.828125 13.390625 -17.828125 C 11.472656 -17.828125 9.882812 -17.203125 8.625 -15.953125 C 7.363281 -14.710938 6.734375 -13.050781 6.734375 -10.96875 C 6.734375 -8.882812 7.351562 -7.21875 8.59375 -5.96875 C 9.84375 -4.726562 11.441406 -4.109375 13.390625 -4.109375 C 14.515625 -4.109375 15.546875 -4.359375 16.484375 -4.859375 C 17.429688 -5.367188 18.222656 -6.128906 18.859375 -7.140625 L 22.796875 -4.84375 C 21.953125 -3.195312 20.710938 -1.929688 19.078125 -1.046875 C 17.453125 -0.160156 15.570312 0.28125 13.4375 0.28125 Z M 13.4375 0.28125 "/></g></g></g><g fill="#000000" fill-opacity="1"><g transform="translate(163.448854, 311.269379)"><g><path d="M 12.328125 -9.40625 L 8.5 -5.796875 L 8.5 0 L 3.375 0 L 3.375 -30.484375 L 8.5 -30.484375 L 8.5 -12.078125 L 19.140625 -21.9375 L 25.296875 -21.9375 L 16.140625 -12.734375 L 26.171875 0 L 19.921875 0 Z M 12.328125 -9.40625 "/></g></g></g><g fill="#000000" fill-opacity="1"><g transform="translate(191.661217, 311.269379)"><g><path d="M 30.28125 0 L 30.234375 -19.0625 L 20.78125 -3.28125 L 18.40625 -3.28125 L 8.953125 -18.8125 L 8.953125 0 L 3.859375 0 L 3.859375 -28.75 L 8.25 -28.75 L 19.671875 -9.6875 L 30.890625 -28.75 L 35.28125 -28.75 L 35.328125 0 Z M 30.28125 0 "/></g></g></g><g fill="#000000" fill-opacity="1"><g transform="translate(232.973353, 311.269379)"><g><path d="M 24.609375 -21.9375 L 24.609375 0 L 19.71875 0 L 19.71875 -2.796875 C 18.894531 -1.804688 17.863281 -1.046875 16.625 -0.515625 C 15.394531 0.015625 14.070312 0.28125 12.65625 0.28125 C 9.71875 0.28125 7.40625 -0.53125 5.71875 -2.15625 C 4.039062 -3.78125 3.203125 -6.195312 3.203125 -9.40625 L 3.203125 -21.9375 L 8.34375 -21.9375 L 8.34375 -10.109375 C 8.34375 -8.128906 8.785156 -6.65625 9.671875 -5.6875 C 10.566406 -4.71875 11.832031 -4.234375 13.46875 -4.234375 C 15.300781 -4.234375 16.757812 -4.800781 17.84375 -5.9375 C 18.925781 -7.070312 19.46875 -8.707031 19.46875 -10.84375 L 19.46875 -21.9375 Z M 24.609375 -21.9375 "/></g></g></g><g fill="#000000" fill-opacity="1"><g transform="translate(263.033639, 311.269379)"><g><path d="M 10.140625 0.28125 C 8.359375 0.28125 6.617188 0.0507812 4.921875 -0.40625 C 3.222656 -0.875 1.867188 -1.460938 0.859375 -2.171875 L 2.828125 -6.078125 C 3.816406 -5.421875 5.003906 -4.894531 6.390625 -4.5 C 7.773438 -4.101562 9.132812 -3.90625 10.46875 -3.90625 C 13.539062 -3.90625 15.078125 -4.710938 15.078125 -6.328125 C 15.078125 -7.085938 14.6875 -7.617188 13.90625 -7.921875 C 13.125 -8.222656 11.867188 -8.515625 10.140625 -8.796875 C 8.335938 -9.066406 6.867188 -9.378906 5.734375 -9.734375 C 4.597656 -10.085938 3.609375 -10.707031 2.765625 -11.59375 C 1.929688 -12.488281 1.515625 -13.734375 1.515625 -15.328125 C 1.515625 -17.398438 2.382812 -19.0625 4.125 -20.3125 C 5.863281 -21.5625 8.210938 -22.1875 11.171875 -22.1875 C 12.679688 -22.1875 14.1875 -22.015625 15.6875 -21.671875 C 17.195312 -21.328125 18.429688 -20.867188 19.390625 -20.296875 L 17.421875 -16.390625 C 15.554688 -17.484375 13.457031 -18.03125 11.125 -18.03125 C 9.625 -18.03125 8.484375 -17.800781 7.703125 -17.34375 C 6.921875 -16.894531 6.53125 -16.300781 6.53125 -15.5625 C 6.53125 -14.75 6.945312 -14.171875 7.78125 -13.828125 C 8.613281 -13.484375 9.910156 -13.160156 11.671875 -12.859375 C 13.421875 -12.585938 14.851562 -12.269531 15.96875 -11.90625 C 17.09375 -11.550781 18.0625 -10.945312 18.875 -10.09375 C 19.6875 -9.25 20.09375 -8.046875 20.09375 -6.484375 C 20.09375 -4.429688 19.203125 -2.789062 17.421875 -1.5625 C 15.640625 -0.332031 13.210938 0.28125 10.140625 0.28125 Z M 10.140625 0.28125 "/></g></g></g><g fill="#000000" fill-opacity="1"><g transform="translate(286.277121, 311.269379)"><g><path d="M 23.984375 -10.84375 C 23.984375 -10.488281 23.957031 -9.984375 23.90625 -9.328125 L 6.703125 -9.328125 C 6.992188 -7.710938 7.773438 -6.429688 9.046875 -5.484375 C 10.328125 -4.535156 11.910156 -4.0625 13.796875 -4.0625 C 16.210938 -4.0625 18.203125 -4.859375 19.765625 -6.453125 L 22.515625 -3.28125 C 21.523438 -2.101562 20.273438 -1.210938 18.765625 -0.609375 C 17.265625 -0.015625 15.566406 0.28125 13.671875 0.28125 C 11.265625 0.28125 9.144531 -0.195312 7.3125 -1.15625 C 5.476562 -2.113281 4.0625 -3.445312 3.0625 -5.15625 C 2.0625 -6.863281 1.5625 -8.800781 1.5625 -10.96875 C 1.5625 -13.101562 2.046875 -15.023438 3.015625 -16.734375 C 3.992188 -18.453125 5.34375 -19.789062 7.0625 -20.75 C 8.789062 -21.707031 10.738281 -22.1875 12.90625 -22.1875 C 15.039062 -22.1875 16.945312 -21.710938 18.625 -20.765625 C 20.3125 -19.816406 21.625 -18.488281 22.5625 -16.78125 C 23.507812 -15.070312 23.984375 -13.09375 23.984375 -10.84375 Z M 12.90625 -18.078125 C 11.257812 -18.078125 9.867188 -17.585938 8.734375 -16.609375 C 7.597656 -15.640625 6.90625 -14.347656 6.65625 -12.734375 L 19.09375 -12.734375 C 18.875 -14.316406 18.203125 -15.601562 17.078125 -16.59375 C 15.960938 -17.582031 14.570312 -18.078125 12.90625 -18.078125 Z M 12.90625 -18.078125 "/></g></g></g><g fill="#000000" fill-opacity="1"><g transform="translate(53.523301, 329.533157)"><g><path d="M 3.921875 0 L 2.734375 0 L 0.03125 -6.796875 L 1.265625 -6.796875 L 3.359375 -1.265625 L 5.484375 -6.796875 L 6.671875 -6.796875 Z M 3.921875 0 "/></g></g></g><g fill="#000000" fill-opacity="1"><g transform="translate(62.233384, 329.533157)"><g><path d="M 2.046875 0 L 0.890625 0 L 0.890625 -6.796875 L 2.046875 -6.796875 Z M 2.046875 0 "/></g></g></g><g fill="#000000" fill-opacity="1"><g transform="translate(67.171681, 329.533157)"><g><path d="M 5.203125 0 L 3.96875 -2.0625 C 3.90625 -2.050781 3.800781 -2.046875 3.65625 -2.046875 L 2.046875 -2.046875 L 2.046875 0 L 0.890625 0 L 0.890625 -6.796875 L 3.65625 -6.796875 C 4.519531 -6.796875 5.191406 -6.59375 5.671875 -6.1875 C 6.148438 -5.789062 6.390625 -5.222656 6.390625 -4.484375 C 6.390625 -3.929688 6.269531 -3.46875 6.03125 -3.09375 C 5.789062 -2.71875 5.441406 -2.445312 4.984375 -2.28125 L 6.515625 0 Z M 2.046875 -3.078125 L 3.65625 -3.078125 C 4.757812 -3.078125 5.3125 -3.535156 5.3125 -4.453125 C 5.3125 -5.328125 4.757812 -5.765625 3.65625 -5.765625 L 2.046875 -5.765625 Z M 2.046875 -3.078125 "/></g></g></g><g fill="#000000" fill-opacity="1"><g transform="translate(76.202553, 329.533157)"><g><path d="M 5.546875 -5.765625 L 3.375 -5.765625 L 3.375 0 L 2.234375 0 L 2.234375 -5.765625 L 0.09375 -5.765625 L 0.09375 -6.796875 L 5.546875 -6.796875 Z M 5.546875 -5.765625 "/></g></g></g><g fill="#000000" fill-opacity="1"><g transform="translate(83.83359, 329.533157)"><g><path d="M 6.671875 -6.796875 L 6.671875 -2.8125 C 6.671875 -1.925781 6.410156 -1.226562 5.890625 -0.71875 C 5.367188 -0.207031 4.644531 0.046875 3.71875 0.046875 C 2.800781 0.046875 2.078125 -0.207031 1.546875 -0.71875 C 1.023438 -1.226562 0.765625 -1.925781 0.765625 -2.8125 L 0.765625 -6.796875 L 1.90625 -6.796875 L 1.90625 -2.8125 C 1.90625 -2.25 2.066406 -1.800781 2.390625 -1.46875 C 2.722656 -1.144531 3.171875 -0.984375 3.734375 -0.984375 C 4.285156 -0.984375 4.722656 -1.144531 5.046875 -1.46875 C 5.367188 -1.789062 5.53125 -2.238281 5.53125 -2.8125 L 5.53125 -6.796875 Z M 6.671875 -6.796875 "/></g></g></g><g fill="#000000" fill-opacity="1"><g transform="translate(93.263028, 329.533157)"><g><path d="M 5.28125 -1.53125 L 1.859375 -1.53125 L 1.203125 0 L 0.015625 0 L 3.015625 -6.796875 L 4.1875 -6.796875 L 7.15625 0 L 5.9375 0 Z M 4.84375 -2.5625 L 3.5625 -5.578125 L 2.28125 -2.5625 Z M 4.84375 -2.5625 "/></g></g></g><g fill="#000000" fill-opacity="1"><g transform="translate(102.439722, 329.533157)"><g><path d="M 2.046875 -1.046875 L 4.984375 -1.046875 L 4.984375 0 L 0.890625 0 L 0.890625 -6.796875 L 2.046875 -6.796875 Z M 2.046875 -1.046875 "/></g></g></g><g fill="#000000" fill-opacity="1"><g transform="translate(109.633318, 329.533157)"><g/></g></g><g fill="#000000" fill-opacity="1"><g transform="translate(114.14389, 329.533157)"><g><path d="M 5.75 -5.765625 L 2.046875 -5.765625 L 2.046875 -3.9375 L 5.359375 -3.9375 L 5.359375 -2.90625 L 2.046875 -2.90625 L 2.046875 -1.03125 L 5.875 -1.03125 L 5.875 0 L 0.890625 0 L 0.890625 -6.796875 L 5.75 -6.796875 Z M 5.75 -5.765625 "/></g></g></g><g fill="#000000" fill-opacity="1"><g transform="translate(122.523454, 329.533157)"><g><path d="M 0.890625 -6.796875 L 3.6875 -6.796875 C 4.695312 -6.796875 5.535156 -6.472656 6.203125 -5.828125 C 6.867188 -5.191406 7.203125 -4.378906 7.203125 -3.390625 C 7.203125 -2.410156 6.867188 -1.597656 6.203125 -0.953125 C 5.535156 -0.316406 4.6875 0 3.65625 0 L 0.890625 0 Z M 2.046875 -5.765625 L 2.046875 -1.03125 L 3.71875 -1.03125 C 4.382812 -1.03125 4.9375 -1.25 5.375 -1.6875 C 5.820312 -2.132812 6.046875 -2.703125 6.046875 -3.390625 C 6.046875 -4.078125 5.816406 -4.644531 5.359375 -5.09375 C 4.898438 -5.539062 4.332031 -5.765625 3.65625 -5.765625 Z M 2.046875 -5.765625 "/></g></g></g><g fill="#000000" fill-opacity="1"><g transform="translate(132.059826, 329.533157)"><g><path d="M 6.671875 -6.796875 L 6.671875 -2.8125 C 6.671875 -1.925781 6.410156 -1.226562 5.890625 -0.71875 C 5.367188 -0.207031 4.644531 0.046875 3.71875 0.046875 C 2.800781 0.046875 2.078125 -0.207031 1.546875 -0.71875 C 1.023438 -1.226562 0.765625 -1.925781 0.765625 -2.8125 L 0.765625 -6.796875 L 1.90625 -6.796875 L 1.90625 -2.8125 C 1.90625 -2.25 2.066406 -1.800781 2.390625 -1.46875 C 2.722656 -1.144531 3.171875 -0.984375 3.734375 -0.984375 C 4.285156 -0.984375 4.722656 -1.144531 5.046875 -1.46875 C 5.367188 -1.789062 5.53125 -2.238281 5.53125 -2.8125 L 5.53125 -6.796875 Z M 6.671875 -6.796875 "/></g></g></g><g fill="#000000" fill-opacity="1"><g transform="translate(141.489264, 329.533157)"><g><path d="M 3.90625 -6.828125 C 4.382812 -6.828125 4.851562 -6.734375 5.3125 -6.546875 C 5.769531 -6.367188 6.160156 -6.113281 6.484375 -5.78125 L 5.828125 -4.953125 C 5.578125 -5.210938 5.28125 -5.421875 4.9375 -5.578125 C 4.601562 -5.734375 4.265625 -5.8125 3.921875 -5.8125 C 3.242188 -5.8125 2.671875 -5.578125 2.203125 -5.109375 C 1.734375 -4.648438 1.5 -4.085938 1.5 -3.421875 C 1.5 -2.742188 1.734375 -2.171875 2.203125 -1.703125 C 2.671875 -1.242188 3.242188 -1.015625 3.921875 -1.015625 C 4.628906 -1.015625 5.265625 -1.285156 5.828125 -1.828125 L 6.5 -1.0625 C 6.15625 -0.71875 5.75 -0.445312 5.28125 -0.25 C 4.8125 -0.0507812 4.34375 0.046875 3.875 0.046875 C 2.875 0.046875 2.03125 -0.28125 1.34375 -0.9375 C 0.664062 -1.601562 0.328125 -2.425781 0.328125 -3.40625 C 0.328125 -4.375 0.671875 -5.1875 1.359375 -5.84375 C 2.054688 -6.5 2.90625 -6.828125 3.90625 -6.828125 Z M 3.90625 -6.828125 "/></g></g></g><g fill="#000000" fill-opacity="1"><g transform="translate(150.267393, 329.533157)"><g><path d="M 5.28125 -1.53125 L 1.859375 -1.53125 L 1.203125 0 L 0.015625 0 L 3.015625 -6.796875 L 4.1875 -6.796875 L 7.15625 0 L 5.9375 0 Z M 4.84375 -2.5625 L 3.5625 -5.578125 L 2.28125 -2.5625 Z M 4.84375 -2.5625 "/></g></g></g><g fill="#000000" fill-opacity="1"><g transform="translate(159.444088, 329.533157)"><g><path d="M 5.546875 -5.765625 L 3.375 -5.765625 L 3.375 0 L 2.234375 0 L 2.234375 -5.765625 L 0.09375 -5.765625 L 0.09375 -6.796875 L 5.546875 -6.796875 Z M 5.546875 -5.765625 "/></g></g></g><g fill="#000000" fill-opacity="1"><g transform="translate(167.075124, 329.533157)"><g><path d="M 2.046875 0 L 0.890625 0 L 0.890625 -6.796875 L 2.046875 -6.796875 Z M 2.046875 0 "/></g></g></g><g fill="#000000" fill-opacity="1"><g transform="translate(172.013421, 329.533157)"><g><path d="M 1.359375 -5.84375 C 2.054688 -6.5 2.914062 -6.828125 3.9375 -6.828125 C 4.957031 -6.828125 5.8125 -6.5 6.5 -5.84375 C 7.195312 -5.1875 7.546875 -4.367188 7.546875 -3.390625 C 7.546875 -2.421875 7.195312 -1.601562 6.5 -0.9375 C 5.8125 -0.28125 4.957031 0.046875 3.9375 0.046875 C 2.914062 0.046875 2.054688 -0.28125 1.359375 -0.9375 C 0.671875 -1.601562 0.328125 -2.421875 0.328125 -3.390625 C 0.328125 -4.367188 0.671875 -5.1875 1.359375 -5.84375 Z M 3.953125 -5.796875 C 3.273438 -5.796875 2.695312 -5.5625 2.21875 -5.09375 C 1.738281 -4.632812 1.5 -4.066406 1.5 -3.390625 C 1.5 -2.722656 1.738281 -2.15625 2.21875 -1.6875 C 2.695312 -1.21875 3.269531 -0.984375 3.9375 -0.984375 C 4.613281 -0.984375 5.1875 -1.21875 5.65625 -1.6875 C 6.125 -2.15625 6.359375 -2.722656 6.359375 -3.390625 C 6.359375 -4.066406 6.125 -4.632812 5.65625 -5.09375 C 5.1875 -5.5625 4.617188 -5.796875 3.953125 -5.796875 Z M 3.953125 -5.796875 "/></g></g></g><g fill="#000000" fill-opacity="1"><g transform="translate(181.890028, 329.533157)"><g><path d="M 6.796875 0 L 5.671875 0 L 2.046875 -4.875 L 2.046875 0 L 0.890625 0 L 0.890625 -6.796875 L 2.015625 -6.796875 L 5.671875 -1.921875 L 5.671875 -6.796875 L 6.796875 -6.796875 Z M 6.796875 0 "/></g></g></g><g fill="#000000" fill-opacity="1"><g transform="translate(191.591666, 329.533157)"><g/></g></g><g fill="#000000" fill-opacity="1"><g transform="translate(196.102238, 329.533157)"><g><path d="M 5.203125 0 L 3.96875 -2.0625 C 3.90625 -2.050781 3.800781 -2.046875 3.65625 -2.046875 L 2.046875 -2.046875 L 2.046875 0 L 0.890625 0 L 0.890625 -6.796875 L 3.65625 -6.796875 C 4.519531 -6.796875 5.191406 -6.59375 5.671875 -6.1875 C 6.148438 -5.789062 6.390625 -5.222656 6.390625 -4.484375 C 6.390625 -3.929688 6.269531 -3.46875 6.03125 -3.09375 C 5.789062 -2.71875 5.441406 -2.445312 4.984375 -2.28125 L 6.515625 0 Z M 2.046875 -3.078125 L 3.65625 -3.078125 C 4.757812 -3.078125 5.3125 -3.535156 5.3125 -4.453125 C 5.3125 -5.328125 4.757812 -5.765625 3.65625 -5.765625 L 2.046875 -5.765625 Z M 2.046875 -3.078125 "/></g></g></g><g fill="#000000" fill-opacity="1"><g transform="translate(205.133111, 329.533157)"><g><path d="M 5.75 -5.765625 L 2.046875 -5.765625 L 2.046875 -3.9375 L 5.359375 -3.9375 L 5.359375 -2.90625 L 2.046875 -2.90625 L 2.046875 -1.03125 L 5.875 -1.03125 L 5.875 0 L 0.890625 0 L 0.890625 -6.796875 L 5.75 -6.796875 Z M 5.75 -5.765625 "/></g></g></g><g fill="#000000" fill-opacity="1"><g transform="translate(213.512674, 329.533157)"><g><path d="M 3.125 -6.859375 C 4.007812 -6.859375 4.804688 -6.625 5.515625 -6.15625 L 5.03125 -5.140625 C 4.34375 -5.554688 3.679688 -5.765625 3.046875 -5.765625 C 2.703125 -5.765625 2.429688 -5.703125 2.234375 -5.578125 C 2.035156 -5.460938 1.9375 -5.289062 1.9375 -5.0625 C 1.9375 -4.832031 2.023438 -4.640625 2.203125 -4.484375 C 2.390625 -4.328125 2.617188 -4.210938 2.890625 -4.140625 C 3.160156 -4.066406 3.453125 -3.972656 3.765625 -3.859375 C 4.085938 -3.742188 4.382812 -3.617188 4.65625 -3.484375 C 4.925781 -3.359375 5.148438 -3.160156 5.328125 -2.890625 C 5.503906 -2.628906 5.59375 -2.304688 5.59375 -1.921875 C 5.59375 -1.328125 5.351562 -0.851562 4.875 -0.5 C 4.40625 -0.144531 3.789062 0.03125 3.03125 0.03125 C 2.507812 0.03125 2.003906 -0.0625 1.515625 -0.25 C 1.035156 -0.445312 0.613281 -0.710938 0.25 -1.046875 L 0.75 -2.03125 C 1.09375 -1.71875 1.46875 -1.472656 1.875 -1.296875 C 2.289062 -1.128906 2.679688 -1.046875 3.046875 -1.046875 C 3.453125 -1.046875 3.765625 -1.117188 3.984375 -1.265625 C 4.210938 -1.410156 4.328125 -1.609375 4.328125 -1.859375 C 4.328125 -2.097656 4.234375 -2.296875 4.046875 -2.453125 C 3.867188 -2.609375 3.644531 -2.722656 3.375 -2.796875 C 3.101562 -2.878906 2.804688 -2.972656 2.484375 -3.078125 C 2.171875 -3.179688 1.878906 -3.289062 1.609375 -3.40625 C 1.335938 -3.53125 1.109375 -3.722656 0.921875 -3.984375 C 0.742188 -4.253906 0.65625 -4.578125 0.65625 -4.953125 C 0.65625 -5.535156 0.878906 -6 1.328125 -6.34375 C 1.785156 -6.6875 2.382812 -6.859375 3.125 -6.859375 Z M 3.125 -6.859375 "/></g></g></g><g fill="#000000" fill-opacity="1"><g transform="translate(221.56172, 329.533157)"><g><path d="M 1.359375 -5.84375 C 2.054688 -6.5 2.914062 -6.828125 3.9375 -6.828125 C 4.957031 -6.828125 5.8125 -6.5 6.5 -5.84375 C 7.195312 -5.1875 7.546875 -4.367188 7.546875 -3.390625 C 7.546875 -2.421875 7.195312 -1.601562 6.5 -0.9375 C 5.8125 -0.28125 4.957031 0.046875 3.9375 0.046875 C 2.914062 0.046875 2.054688 -0.28125 1.359375 -0.9375 C 0.671875 -1.601562 0.328125 -2.421875 0.328125 -3.390625 C 0.328125 -4.367188 0.671875 -5.1875 1.359375 -5.84375 Z M 3.953125 -5.796875 C 3.273438 -5.796875 2.695312 -5.5625 2.21875 -5.09375 C 1.738281 -4.632812 1.5 -4.066406 1.5 -3.390625 C 1.5 -2.722656 1.738281 -2.15625 2.21875 -1.6875 C 2.695312 -1.21875 3.269531 -0.984375 3.9375 -0.984375 C 4.613281 -0.984375 5.1875 -1.21875 5.65625 -1.6875 C 6.125 -2.15625 6.359375 -2.722656 6.359375 -3.390625 C 6.359375 -4.066406 6.125 -4.632812 5.65625 -5.09375 C 5.1875 -5.5625 4.617188 -5.796875 3.953125 -5.796875 Z M 3.953125 -5.796875 "/></g></g></g><g fill="#000000" fill-opacity="1"><g transform="translate(231.438326, 329.533157)"><g><path d="M 6.671875 -6.796875 L 6.671875 -2.8125 C 6.671875 -1.925781 6.410156 -1.226562 5.890625 -0.71875 C 5.367188 -0.207031 4.644531 0.046875 3.71875 0.046875 C 2.800781 0.046875 2.078125 -0.207031 1.546875 -0.71875 C 1.023438 -1.226562 0.765625 -1.925781 0.765625 -2.8125 L 0.765625 -6.796875 L 1.90625 -6.796875 L 1.90625 -2.8125 C 1.90625 -2.25 2.066406 -1.800781 2.390625 -1.46875 C 2.722656 -1.144531 3.171875 -0.984375 3.734375 -0.984375 C 4.285156 -0.984375 4.722656 -1.144531 5.046875 -1.46875 C 5.367188 -1.789062 5.53125 -2.238281 5.53125 -2.8125 L 5.53125 -6.796875 Z M 6.671875 -6.796875 "/></g></g></g><g fill="#000000" fill-opacity="1"><g transform="translate(240.867764, 329.533157)"><g><path d="M 5.203125 0 L 3.96875 -2.0625 C 3.90625 -2.050781 3.800781 -2.046875 3.65625 -2.046875 L 2.046875 -2.046875 L 2.046875 0 L 0.890625 0 L 0.890625 -6.796875 L 3.65625 -6.796875 C 4.519531 -6.796875 5.191406 -6.59375 5.671875 -6.1875 C 6.148438 -5.789062 6.390625 -5.222656 6.390625 -4.484375 C 6.390625 -3.929688 6.269531 -3.46875 6.03125 -3.09375 C 5.789062 -2.71875 5.441406 -2.445312 4.984375 -2.28125 L 6.515625 0 Z M 2.046875 -3.078125 L 3.65625 -3.078125 C 4.757812 -3.078125 5.3125 -3.535156 5.3125 -4.453125 C 5.3125 -5.328125 4.757812 -5.765625 3.65625 -5.765625 L 2.046875 -5.765625 Z M 2.046875 -3.078125 "/></g></g></g><g fill="#000000" fill-opacity="1"><g transform="translate(249.898637, 329.533157)"><g><path d="M 3.90625 -6.828125 C 4.382812 -6.828125 4.851562 -6.734375 5.3125 -6.546875 C 5.769531 -6.367188 6.160156 -6.113281 6.484375 -5.78125 L 5.828125 -4.953125 C 5.578125 -5.210938 5.28125 -5.421875 4.9375 -5.578125 C 4.601562 -5.734375 4.265625 -5.8125 3.921875 -5.8125 C 3.242188 -5.8125 2.671875 -5.578125 2.203125 -5.109375 C 1.734375 -4.648438 1.5 -4.085938 1.5 -3.421875 C 1.5 -2.742188 1.734375 -2.171875 2.203125 -1.703125 C 2.671875 -1.242188 3.242188 -1.015625 3.921875 -1.015625 C 4.628906 -1.015625 5.265625 -1.285156 5.828125 -1.828125 L 6.5 -1.0625 C 6.15625 -0.71875 5.75 -0.445312 5.28125 -0.25 C 4.8125 -0.0507812 4.34375 0.046875 3.875 0.046875 C 2.875 0.046875 2.03125 -0.28125 1.34375 -0.9375 C 0.664062 -1.601562 0.328125 -2.425781 0.328125 -3.40625 C 0.328125 -4.375 0.671875 -5.1875 1.359375 -5.84375 C 2.054688 -6.5 2.90625 -6.828125 3.90625 -6.828125 Z M 3.90625 -6.828125 "/></g></g></g><g fill="#000000" fill-opacity="1"><g transform="translate(258.676766, 329.533157)"><g><path d="M 5.75 -5.765625 L 2.046875 -5.765625 L 2.046875 -3.9375 L 5.359375 -3.9375 L 5.359375 -2.90625 L 2.046875 -2.90625 L 2.046875 -1.03125 L 5.875 -1.03125 L 5.875 0 L 0.890625 0 L 0.890625 -6.796875 L 5.75 -6.796875 Z M 5.75 -5.765625 "/></g></g></g><g fill="#000000" fill-opacity="1"><g transform="translate(267.056342, 329.533157)"><g/></g></g><g fill="#000000" fill-opacity="1"><g transform="translate(271.566915, 329.533157)"><g><path d="M 3.90625 -6.828125 C 4.382812 -6.828125 4.851562 -6.734375 5.3125 -6.546875 C 5.769531 -6.367188 6.160156 -6.113281 6.484375 -5.78125 L 5.828125 -4.953125 C 5.578125 -5.210938 5.28125 -5.421875 4.9375 -5.578125 C 4.601562 -5.734375 4.265625 -5.8125 3.921875 -5.8125 C 3.242188 -5.8125 2.671875 -5.578125 2.203125 -5.109375 C 1.734375 -4.648438 1.5 -4.085938 1.5 -3.421875 C 1.5 -2.742188 1.734375 -2.171875 2.203125 -1.703125 C 2.671875 -1.242188 3.242188 -1.015625 3.921875 -1.015625 C 4.628906 -1.015625 5.265625 -1.285156 5.828125 -1.828125 L 6.5 -1.0625 C 6.15625 -0.71875 5.75 -0.445312 5.28125 -0.25 C 4.8125 -0.0507812 4.34375 0.046875 3.875 0.046875 C 2.875 0.046875 2.03125 -0.28125 1.34375 -0.9375 C 0.664062 -1.601562 0.328125 -2.425781 0.328125 -3.40625 C 0.328125 -4.375 0.671875 -5.1875 1.359375 -5.84375 C 2.054688 -6.5 2.90625 -6.828125 3.90625 -6.828125 Z M 3.90625 -6.828125 "/></g></g></g><g fill="#000000" fill-opacity="1"><g transform="translate(280.345044, 329.533157)"><g><path d="M 5.75 -5.765625 L 2.046875 -5.765625 L 2.046875 -3.9375 L 5.359375 -3.9375 L 5.359375 -2.90625 L 2.046875 -2.90625 L 2.046875 -1.03125 L 5.875 -1.03125 L 5.875 0 L 0.890625 0 L 0.890625 -6.796875 L 5.75 -6.796875 Z M 5.75 -5.765625 "/></g></g></g><g fill="#000000" fill-opacity="1"><g transform="translate(288.724607, 329.533157)"><g><path d="M 6.796875 0 L 5.671875 0 L 2.046875 -4.875 L 2.046875 0 L 0.890625 0 L 0.890625 -6.796875 L 2.015625 -6.796875 L 5.671875 -1.921875 L 5.671875 -6.796875 L 6.796875 -6.796875 Z M 6.796875 0 "/></g></g></g><g fill="#000000" fill-opacity="1"><g transform="translate(298.426245, 329.533157)"><g><path d="M 5.546875 -5.765625 L 3.375 -5.765625 L 3.375 0 L 2.234375 0 L 2.234375 -5.765625 L 0.09375 -5.765625 L 0.09375 -6.796875 L 5.546875 -6.796875 Z M 5.546875 -5.765625 "/></g></g></g><g fill="#000000" fill-opacity="1"><g transform="translate(306.057281, 329.533157)"><g><path d="M 5.75 -5.765625 L 2.046875 -5.765625 L 2.046875 -3.9375 L 5.359375 -3.9375 L 5.359375 -2.90625 L 2.046875 -2.90625 L 2.046875 -1.03125 L 5.875 -1.03125 L 5.875 0 L 0.890625 0 L 0.890625 -6.796875 L 5.75 -6.796875 Z M 5.75 -5.765625 "/></g></g></g><g fill="#000000" fill-opacity="1"><g transform="translate(314.436845, 329.533157)"><g><path d="M 5.203125 0 L 3.96875 -2.0625 C 3.90625 -2.050781 3.800781 -2.046875 3.65625 -2.046875 L 2.046875 -2.046875 L 2.046875 0 L 0.890625 0 L 0.890625 -6.796875 L 3.65625 -6.796875 C 4.519531 -6.796875 5.191406 -6.59375 5.671875 -6.1875 C 6.148438 -5.789062 6.390625 -5.222656 6.390625 -4.484375 C 6.390625 -3.929688 6.269531 -3.46875 6.03125 -3.09375 C 5.789062 -2.71875 5.441406 -2.445312 4.984375 -2.28125 L 6.515625 0 Z M 2.046875 -3.078125 L 3.65625 -3.078125 C 4.757812 -3.078125 5.3125 -3.535156 5.3125 -4.453125 C 5.3125 -5.328125 4.757812 -5.765625 3.65625 -5.765625 L 2.046875 -5.765625 Z M 2.046875 -3.078125 "/></g></g></g></svg>